<svg id="Layer_1" data-name="Layer 1" xmlns="http://www.w3.org/2000/svg" xmlns:xlink="http://www.w3.org/1999/xlink" viewBox="0 0 64 64"><defs><style>.cls-1{fill:none;}.cls-2{fill:#fff;}.cls-3{clip-path:url(#clip-path);}.cls-4{fill:#fefefe;}.cls-5{fill:#fdfdfd;}.cls-6{fill:#fcfcfc;}.cls-7{fill:#fbfbfb;}.cls-8{fill:#fafafa;}.cls-9{fill:#f9f9f9;}.cls-10{fill:#f8f8f8;}.cls-11{fill:#f7f7f7;}.cls-12{fill:#f6f6f6;}.cls-13{fill:#f5f5f5;}.cls-14{fill:#f4f4f4;}.cls-15{fill:#f3f3f3;}.cls-16{fill:#f2f2f2;}.cls-17{fill:#f1f1f1;}.cls-18{fill:#f0f0f0;}.cls-19{fill:#efefef;}.cls-20{fill:#eee;}.cls-21{fill:#ededed;}.cls-22{fill:#ececec;}.cls-23{fill:#ebebeb;}.cls-24{fill:#eaeaea;}.cls-25{fill:#e9e9e9;}.cls-26{fill:#e8e8e8;}.cls-27{fill:#e7e7e7;}.cls-28{fill:#e5e5e5;}.cls-29{fill:#e4e4e4;}.cls-30{fill:#e3e3e3;}.cls-31{fill:#e2e2e2;}.cls-32{fill:#e1e1e1;}.cls-33{fill:#e0e0e0;}.cls-34{fill:#dfdfdf;}.cls-35{fill:#dedede;}.cls-36{fill:#ddd;}.cls-37{fill:#dcdcdc;}.cls-38{fill:#dbdbdb;}.cls-39{fill:#dadada;}.cls-40{fill:#d9d9d9;}.cls-41{fill:#d8d8d8;}.cls-42{fill:#d7d7d7;}.cls-43{fill:#d6d6d6;}.cls-44{fill:#d5d5d5;}.cls-45{fill:#d4d4d4;}.cls-46{fill:#d3d3d3;}.cls-47{fill:#d2d2d2;}.cls-48{fill:#d1d1d1;}.cls-49{fill:#d0d0d0;}.cls-50{fill:#cfcfcf;}.cls-51{fill:#cecece;}.cls-52{fill:#cdcdcd;}.cls-53{fill:#ccc;}.cls-54{fill:#365b85;}</style><clipPath id="clip-path" transform="translate(0 0)"><rect class="cls-1" x="6.72" y="7.3" width="50.55" height="49.4" rx="6.89"/></clipPath></defs><title>Basic_Details</title><g id="BG"><rect class="cls-2" width="64" height="64"/></g><g id="Basic_Details" data-name="Basic Details"><g id="Rectangle_793" data-name="Rectangle 793"><g class="cls-3"><path class="cls-2" d="M57.28,7.3Z" transform="translate(0 0)"/><rect class="cls-2" x="6.72" y="7.3" width="50.55" height="0.97"/><rect class="cls-4" x="6.72" y="8.27" width="50.55" height="0.97"/><rect class="cls-5" x="6.72" y="9.24" width="50.55" height="0.97"/><rect class="cls-6" x="6.72" y="10.2" width="50.55" height="0.97"/><rect class="cls-7" x="6.72" y="11.17" width="50.55" height="0.97"/><rect class="cls-8" x="6.72" y="12.14" width="50.55" height="0.97"/><rect class="cls-9" x="6.72" y="13.11" width="50.55" height="0.97"/><rect class="cls-10" x="6.72" y="14.08" width="50.55" height="0.97"/><rect class="cls-11" x="6.72" y="15.05" width="50.55" height="0.97"/><rect class="cls-12" x="6.72" y="16.02" width="50.55" height="0.97"/><rect class="cls-13" x="6.72" y="16.98" width="50.55" height="0.97"/><rect class="cls-14" x="6.72" y="17.95" width="50.55" height="0.97"/><rect class="cls-15" x="6.72" y="18.92" width="50.55" height="0.97"/><rect class="cls-16" x="6.72" y="19.89" width="50.55" height="0.97"/><rect class="cls-17" x="6.72" y="20.86" width="50.55" height="0.97"/><rect class="cls-18" x="6.72" y="21.83" width="50.55" height="0.97"/><rect class="cls-19" x="6.72" y="22.8" width="50.55" height="0.97"/><rect class="cls-20" x="6.72" y="23.77" width="50.55" height="0.97"/><rect class="cls-21" x="6.72" y="24.73" width="50.55" height="0.97"/><rect class="cls-22" x="6.72" y="25.7" width="50.55" height="0.97"/><rect class="cls-23" x="6.72" y="26.67" width="50.55" height="0.97"/><rect class="cls-24" x="6.72" y="27.64" width="50.55" height="0.97"/><rect class="cls-25" x="6.72" y="28.61" width="50.55" height="0.97"/><rect class="cls-26" x="6.72" y="29.58" width="50.55" height="0.97"/><rect class="cls-27" x="6.72" y="30.55" width="50.55" height="0.97"/><rect class="cls-28" x="6.72" y="31.52" width="50.55" height="0.97"/><rect class="cls-29" x="6.72" y="32.48" width="50.55" height="0.97"/><rect class="cls-30" x="6.72" y="33.45" width="50.55" height="0.97"/><rect class="cls-31" x="6.72" y="34.42" width="50.55" height="0.97"/><rect class="cls-32" x="6.72" y="35.39" width="50.55" height="0.97"/><rect class="cls-33" x="6.72" y="36.36" width="50.55" height="0.97"/><rect class="cls-34" x="6.72" y="37.33" width="50.55" height="0.97"/><rect class="cls-35" x="6.72" y="38.3" width="50.55" height="0.97"/><rect class="cls-36" x="6.72" y="39.27" width="50.55" height="0.97"/><rect class="cls-37" x="6.72" y="40.23" width="50.55" height="0.97"/><rect class="cls-38" x="6.72" y="41.2" width="50.55" height="0.97"/><rect class="cls-39" x="6.72" y="42.17" width="50.55" height="0.97"/><rect class="cls-40" x="6.72" y="43.14" width="50.55" height="0.97"/><rect class="cls-41" x="6.72" y="44.11" width="50.55" height="0.97"/><rect class="cls-42" x="6.72" y="45.08" width="50.55" height="0.97"/><rect class="cls-43" x="6.72" y="46.05" width="50.55" height="0.97"/><rect class="cls-44" x="6.72" y="47.02" width="50.55" height="0.97"/><rect class="cls-45" x="6.72" y="47.98" width="50.55" height="0.97"/><rect class="cls-46" x="6.72" y="48.95" width="50.55" height="0.97"/><rect class="cls-47" x="6.72" y="49.92" width="50.55" height="0.97"/><rect class="cls-48" x="6.72" y="50.89" width="50.55" height="0.97"/><rect class="cls-49" x="6.72" y="51.86" width="50.55" height="0.97"/><rect class="cls-50" x="6.72" y="52.83" width="50.55" height="0.97"/><rect class="cls-51" x="6.72" y="53.8" width="50.55" height="0.97"/><rect class="cls-52" x="6.72" y="54.76" width="50.55" height="0.97"/><rect class="cls-53" x="6.72" y="55.73" width="50.55" height="0.97"/><path class="cls-53" d="M6.72,56.7Z" transform="translate(0 0)"/></g></g><g id="Group_831" data-name="Group 831"><g id="Rectangle_824" data-name="Rectangle 824"><path class="cls-54" d="M50.38,57.7H13.62a7.9,7.9,0,0,1-7.9-7.89V14.19a7.9,7.9,0,0,1,7.9-7.89H50.38a7.9,7.9,0,0,1,7.9,7.89V49.81A7.9,7.9,0,0,1,50.38,57.7ZM13.62,8.3a5.91,5.91,0,0,0-5.9,5.89V49.81a5.91,5.91,0,0,0,5.9,5.89H50.38a5.91,5.91,0,0,0,5.9-5.89V14.19a5.91,5.91,0,0,0-5.9-5.89Z" transform="translate(0 0)"/><path class="cls-54" d="M50.38,57.13H13.62A7.34,7.34,0,0,1,6.3,49.81V14.19a7.34,7.34,0,0,1,7.32-7.32H50.38a7.34,7.34,0,0,1,7.32,7.32V49.81A7.34,7.34,0,0,1,50.38,57.13ZM13.62,8.87A5.32,5.32,0,0,0,8.3,14.19V49.81a5.32,5.32,0,0,0,5.32,5.32H50.38a5.32,5.32,0,0,0,5.32-5.32V14.19a5.32,5.32,0,0,0-5.32-5.32Z" transform="translate(0 0)"/></g><g id="Group_44" data-name="Group 44"><g id="Group_43" data-name="Group 43"><g id="Group_41" data-name="Group 41"><g id="Group_40" data-name="Group 40"><g id="Path_39" data-name="Path 39"><path class="cls-54" d="M31.43,24.37a3.55,3.55,0,0,1-2.36-.91,6.24,6.24,0,0,1-1.95-3.34L27.05,20a3.84,3.84,0,0,1-.37-2.45l.05-.31.08-.07v-1.9A4.09,4.09,0,0,1,28.2,12.6v-.28l.29-.29a1.1,1.1,0,0,1,.53-.47,2,2,0,0,1,1.83,0l.25.08a1.39,1.39,0,0,1,.83.31,2.35,2.35,0,0,1,.59-.1,4.23,4.23,0,0,1,1.54.18h.1a4,4,0,0,1,2.4,4v.21a3.09,3.09,0,0,1-.08.6,1.15,1.15,0,0,0-.06.37v1.38A2.11,2.11,0,0,1,36,19.91V20a5.89,5.89,0,0,1-2.5,3.67A3.42,3.42,0,0,1,31.43,24.37Zm-2.36-4.68A4.3,4.3,0,0,0,30.4,22a1.51,1.51,0,0,0,1.92.09A3.91,3.91,0,0,0,34,19.7v-.13a1.48,1.48,0,0,1,.38-.84.21.21,0,0,0,0-.11V17.18a3.74,3.74,0,0,1,.1-.81v-.44a2,2,0,0,0-1.15-2,2.12,2.12,0,0,0-.83-.08h-.1a1.67,1.67,0,0,1-1.68-.24,1.34,1.34,0,0,1-.55-.16h-.1l-.07,0a1.6,1.6,0,0,1-.52.66,2.1,2.1,0,0,0-.72,1.35V17a1.45,1.45,0,0,1-.18,1.09,1.73,1.73,0,0,0,.1.71A1.2,1.2,0,0,1,29.07,19.69ZM27,17l.71.71Zm1.32-4.49Z" transform="translate(0 0)"/></g><g id="Group_39" data-name="Group 39"><g id="Path_40" data-name="Path 40"><path class="cls-54" d="M43.21,37.35h-2a9.64,9.64,0,0,0-6.9-9.29l.56-1.92A11.65,11.65,0,0,1,43.21,37.35Z" transform="translate(0 0)"/></g><g id="Path_41" data-name="Path 41"><path class="cls-54" d="M19.87,37.35a11.55,11.55,0,0,1,8.2-11.08l.57,1.92a9.52,9.52,0,0,0-6.77,9.15Z" transform="translate(0 0)"/></g><g id="Group_38" data-name="Group 38"><g id="Line_14" data-name="Line 14"><rect class="cls-54" x="30.17" y="28.52" width="5.66" height="2" transform="translate(-9.29 42.63) rotate(-59.03)"/></g><g id="Line_15" data-name="Line 15"><rect class="cls-54" x="29.17" y="26.72" width="2" height="5.59" transform="translate(-10.67 18.86) rotate(-29.75)"/></g></g></g></g><g id="Line_16" data-name="Line 16"><rect class="cls-54" x="24.58" y="33.05" width="2" height="4.29"/></g><g id="Line_17" data-name="Line 17"><rect class="cls-54" x="36.5" y="33.05" width="2" height="4.29"/></g></g><g id="Group_42" data-name="Group 42"><g id="Line_18" data-name="Line 18"><rect class="cls-54" x="14.36" y="40.92" width="14.55" height="2"/></g><g id="Line_19" data-name="Line 19"><rect class="cls-54" x="34.17" y="40.92" width="14.55" height="2"/></g><g id="Line_20" data-name="Line 20"><rect class="cls-54" x="14.36" y="47.57" width="34.36" height="2"/></g></g></g></g></g></g></svg>