<svg xmlns="http://www.w3.org/2000/svg" xmlns:xlink="http://www.w3.org/1999/xlink" viewBox="0 0 64 64"><defs><style>.cls-1{fill:none;}.cls-2{fill:#fff;}.cls-3{clip-path:url(#clip-path);}.cls-4{fill:#fefefe;}.cls-5{fill:#fdfdfd;}.cls-6{fill:#fcfcfc;}.cls-7{fill:#fbfbfb;}.cls-8{fill:#fafafa;}.cls-9{fill:#f9f9f9;}.cls-10{fill:#f8f8f8;}.cls-11{fill:#f7f7f7;}.cls-12{fill:#f6f6f6;}.cls-13{fill:#f5f5f5;}.cls-14{fill:#f4f4f4;}.cls-15{fill:#f3f3f3;}.cls-16{fill:#f2f2f2;}.cls-17{fill:#f1f1f1;}.cls-18{fill:#f0f0f0;}.cls-19{fill:#efefef;}.cls-20{fill:#eee;}.cls-21{fill:#ededed;}.cls-22{fill:#ececec;}.cls-23{fill:#ebebeb;}.cls-24{fill:#eaeaea;}.cls-25{fill:#e9e9e9;}.cls-26{fill:#e8e8e8;}.cls-27{fill:#e7e7e7;}.cls-28{fill:#e5e5e5;}.cls-29{fill:#e4e4e4;}.cls-30{fill:#e3e3e3;}.cls-31{fill:#e2e2e2;}.cls-32{fill:#e1e1e1;}.cls-33{fill:#e0e0e0;}.cls-34{fill:#dfdfdf;}.cls-35{fill:#dedede;}.cls-36{fill:#ddd;}.cls-37{fill:#dcdcdc;}.cls-38{fill:#dbdbdb;}.cls-39{fill:#dadada;}.cls-40{fill:#d9d9d9;}.cls-41{fill:#d8d8d8;}.cls-42{fill:#d7d7d7;}.cls-43{fill:#d6d6d6;}.cls-44{fill:#d5d5d5;}.cls-45{fill:#d4d4d4;}.cls-46{fill:#d3d3d3;}.cls-47{fill:#d2d2d2;}.cls-48{fill:#d1d1d1;}.cls-49{fill:#d0d0d0;}.cls-50{fill:#cfcfcf;}.cls-51{fill:#cecece;}.cls-52{fill:#cdcdcd;}.cls-53{fill:#ccc;}.cls-54{fill:#365b85;}</style><clipPath id="clip-path"><rect class="cls-1" x="6.72" y="7.3" width="50.55" height="49.4" rx="6.89"/></clipPath></defs><title>Case_synopsis</title><g id="BG"><rect class="cls-2" width="64" height="64"/></g><g id="Case_synopsis"><g id="Rectangle_793" data-name="Rectangle 793"><g class="cls-3"><path class="cls-2" d="M57.28,7.3h0Z"/><rect class="cls-2" x="6.72" y="7.3" width="50.55" height="0.97"/><rect class="cls-4" x="6.72" y="8.27" width="50.55" height="0.97"/><rect class="cls-5" x="6.72" y="9.24" width="50.55" height="0.97"/><rect class="cls-6" x="6.72" y="10.2" width="50.55" height="0.97"/><rect class="cls-7" x="6.72" y="11.17" width="50.55" height="0.97"/><rect class="cls-8" x="6.72" y="12.14" width="50.55" height="0.97"/><rect class="cls-9" x="6.72" y="13.11" width="50.55" height="0.97"/><rect class="cls-10" x="6.72" y="14.08" width="50.55" height="0.97"/><rect class="cls-11" x="6.72" y="15.05" width="50.55" height="0.97"/><rect class="cls-12" x="6.72" y="16.02" width="50.55" height="0.97"/><rect class="cls-13" x="6.72" y="16.98" width="50.55" height="0.97"/><rect class="cls-14" x="6.72" y="17.95" width="50.55" height="0.97"/><rect class="cls-15" x="6.72" y="18.92" width="50.55" height="0.97"/><rect class="cls-16" x="6.72" y="19.89" width="50.55" height="0.97"/><rect class="cls-17" x="6.72" y="20.86" width="50.55" height="0.97"/><rect class="cls-18" x="6.72" y="21.83" width="50.55" height="0.97"/><rect class="cls-19" x="6.72" y="22.8" width="50.55" height="0.97"/><rect class="cls-20" x="6.72" y="23.77" width="50.55" height="0.97"/><rect class="cls-21" x="6.72" y="24.73" width="50.55" height="0.97"/><rect class="cls-22" x="6.72" y="25.7" width="50.55" height="0.97"/><rect class="cls-23" x="6.72" y="26.67" width="50.55" height="0.97"/><rect class="cls-24" x="6.72" y="27.64" width="50.55" height="0.97"/><rect class="cls-25" x="6.72" y="28.61" width="50.55" height="0.97"/><rect class="cls-26" x="6.72" y="29.58" width="50.55" height="0.97"/><rect class="cls-27" x="6.72" y="30.55" width="50.55" height="0.97"/><rect class="cls-28" x="6.72" y="31.52" width="50.55" height="0.97"/><rect class="cls-29" x="6.72" y="32.48" width="50.55" height="0.97"/><rect class="cls-30" x="6.72" y="33.45" width="50.55" height="0.97"/><rect class="cls-31" x="6.72" y="34.42" width="50.55" height="0.97"/><rect class="cls-32" x="6.72" y="35.39" width="50.55" height="0.97"/><rect class="cls-33" x="6.72" y="36.36" width="50.55" height="0.97"/><rect class="cls-34" x="6.72" y="37.33" width="50.55" height="0.97"/><rect class="cls-35" x="6.72" y="38.3" width="50.55" height="0.97"/><rect class="cls-36" x="6.72" y="39.27" width="50.55" height="0.97"/><rect class="cls-37" x="6.72" y="40.23" width="50.55" height="0.97"/><rect class="cls-38" x="6.72" y="41.2" width="50.55" height="0.97"/><rect class="cls-39" x="6.72" y="42.17" width="50.55" height="0.97"/><rect class="cls-40" x="6.72" y="43.14" width="50.55" height="0.97"/><rect class="cls-41" x="6.72" y="44.11" width="50.55" height="0.97"/><rect class="cls-42" x="6.72" y="45.08" width="50.55" height="0.97"/><rect class="cls-43" x="6.72" y="46.05" width="50.55" height="0.97"/><rect class="cls-44" x="6.72" y="47.02" width="50.55" height="0.97"/><rect class="cls-45" x="6.72" y="47.98" width="50.55" height="0.97"/><rect class="cls-46" x="6.72" y="48.95" width="50.55" height="0.97"/><rect class="cls-47" x="6.72" y="49.92" width="50.55" height="0.97"/><rect class="cls-48" x="6.72" y="50.89" width="50.55" height="0.97"/><rect class="cls-49" x="6.72" y="51.86" width="50.55" height="0.97"/><rect class="cls-50" x="6.72" y="52.83" width="50.55" height="0.97"/><rect class="cls-51" x="6.72" y="53.8" width="50.55" height="0.97"/><rect class="cls-52" x="6.72" y="54.76" width="50.55" height="0.97"/><rect class="cls-53" x="6.72" y="55.73" width="50.55" height="0.97"/><path class="cls-53" d="M6.72,56.7h0Z"/></g></g><g id="Rectangle_793-2" data-name="Rectangle 793"><rect class="cls-1" x="6.72" y="7.3" width="50.55" height="49.4" rx="6.89"/><path class="cls-54" d="M50.38,57.13H13.62A7.33,7.33,0,0,1,6.3,49.81V14.19a7.33,7.33,0,0,1,7.32-7.32H50.38a7.33,7.33,0,0,1,7.32,7.32V49.81A7.33,7.33,0,0,1,50.38,57.13ZM13.62,8.87A5.32,5.32,0,0,0,8.3,14.19V49.81a5.32,5.32,0,0,0,5.32,5.32H50.38a5.32,5.32,0,0,0,5.32-5.32V14.19a5.32,5.32,0,0,0-5.32-5.32Z"/></g><polygon class="cls-54" points="37.16 37.69 23.04 29.86 11.53 29.86 11.53 11.74 38.85 11.74 38.85 16.01 36.85 16.01 36.85 13.74 13.53 13.74 13.53 27.86 23.56 27.86 33.47 33.35 31.48 27.86 36.85 27.86 36.85 25.48 38.85 25.48 38.85 29.86 34.33 29.86 37.16 37.69"/><g id="Path_47" data-name="Path 47"><path class="cls-54" d="M46.77,15.34h0c-3.34,2.87-6.68,6-10,8.83h0c-1.67-1.67-3.1-3.58-4.77-5.25.72-.71,1.43-1.19,2.15-1.91.95,1,1.91,2.15,2.86,3.1,2.63-2.38,5.25-4.53,7.88-6.91v.23a7.19,7.19,0,0,1,1.9,1.91C46.54,15.1,46.77,15.1,46.77,15.34Z"/></g><rect class="cls-54" x="16.42" y="17.52" width="9.69" height="2"/><rect class="cls-54" x="16.42" y="21.41" width="9.69" height="2"/><g id="Group_830" data-name="Group 830"><g id="Group_48" data-name="Group 48"><g id="Group_47" data-name="Group 47"><g id="Path_42" data-name="Path 42"><path class="cls-54" d="M45.46,45.16a4.23,4.23,0,0,1-3-1.28,7.67,7.67,0,0,1-2.54-4.44l-.1-.15a4.87,4.87,0,0,1-.63-2.5v-.43l.12-.11v-.12l.18-.17,0-.05V35a6.06,6.06,0,0,0-.05-.76c0-.3,0-.61,0-.94a4.77,4.77,0,0,1,1.81-3.52.68.68,0,0,0,.12-.22l.07-.19a2.47,2.47,0,0,1,.51-.69l.17-.12a2.93,2.93,0,0,1,2.7.14l.1,0a1.91,1.91,0,0,1,1,.49.44.44,0,0,0,.11.1s0,0,.1-.07a2.89,2.89,0,0,1,.77-.12,5.31,5.31,0,0,1,2,.24l.1,0a5,5,0,0,1,1.74,1.24,5.72,5.72,0,0,1,1.25,3.44,1.39,1.39,0,0,1-.1.67q0,.31-.06.63c0,.18,0,.35,0,.51v1.83a4.44,4.44,0,0,1-.52,1.55.88.88,0,0,1-.07.13l0,.22A8.5,8.5,0,0,1,48,44.27,4.19,4.19,0,0,1,45.46,45.16Zm-4-6.93a1.8,1.8,0,0,1,.35.8,5.86,5.86,0,0,0,1.95,3.39,2.27,2.27,0,0,0,3,.27,6.45,6.45,0,0,0,2.3-3.44,1.82,1.82,0,0,1,.25-.81l.05-.09a2.25,2.25,0,0,0,.29-.82V35.91a6.54,6.54,0,0,1,.06-.72c0-.22,0-.44,0-.67v-.31l.1-.14A3.72,3.72,0,0,0,49.13,32a2.94,2.94,0,0,0-1-.67,3.72,3.72,0,0,0-1.28-.15,2.27,2.27,0,0,0-.3.06,2,2,0,0,1-2.1-.48l-.11,0-.36-.1a4.41,4.41,0,0,0-.87-.3,2.72,2.72,0,0,1-.59.94l-.12.11a2.7,2.7,0,0,0-1.09,2,6.06,6.06,0,0,0,0,.7c0,.3.05.6.05.94v.53a1.83,1.83,0,0,1-.29,1.54A2.82,2.82,0,0,0,41.49,38.23Zm-1.62,1.14Zm10.05-5.2v0Z"/></g><g id="Group_46" data-name="Group 46"><g id="Path_43" data-name="Path 43"><path class="cls-54" d="M51.93,48.23a13.3,13.3,0,0,0-2.6-1.11l.58-1.91a15.3,15.3,0,0,1,3,1.28Z"/></g><g id="Path_44" data-name="Path 44"><path class="cls-54" d="M38.13,48.91,37,47.25a15.26,15.26,0,0,1,4.05-1.94l.59,1.91A13.13,13.13,0,0,0,38.13,48.91Z"/></g><g id="Group_45" data-name="Group 45"><g id="Line_21" data-name="Line 21"><rect class="cls-54" x="43.74" y="48.45" width="7.58" height="2" transform="translate(-19.05 65.95) rotate(-60.05)"/></g><g id="Line_22" data-name="Line 22"><rect class="cls-54" x="42.65" y="45.66" width="2" height="7.58" transform="translate(-18.85 28.37) rotate(-29.93)"/></g></g></g></g></g></g></g></svg>