<svg xmlns="http://www.w3.org/2000/svg" xmlns:xlink="http://www.w3.org/1999/xlink" viewBox="0 0 64 64"><defs><style>.cls-1{fill:none;}.cls-2{fill:#fff;}.cls-3{clip-path:url(#clip-path);}.cls-4{fill:#fefefe;}.cls-5{fill:#fdfdfd;}.cls-6{fill:#fcfcfc;}.cls-7{fill:#fbfbfb;}.cls-8{fill:#fafafa;}.cls-9{fill:#f9f9f9;}.cls-10{fill:#f8f8f8;}.cls-11{fill:#f7f7f7;}.cls-12{fill:#f6f6f6;}.cls-13{fill:#f5f5f5;}.cls-14{fill:#f4f4f4;}.cls-15{fill:#f3f3f3;}.cls-16{fill:#f2f2f2;}.cls-17{fill:#f1f1f1;}.cls-18{fill:#f0f0f0;}.cls-19{fill:#efefef;}.cls-20{fill:#eee;}.cls-21{fill:#ededed;}.cls-22{fill:#ececec;}.cls-23{fill:#ebebeb;}.cls-24{fill:#eaeaea;}.cls-25{fill:#e9e9e9;}.cls-26{fill:#e8e8e8;}.cls-27{fill:#e7e7e7;}.cls-28{fill:#e5e5e5;}.cls-29{fill:#e4e4e4;}.cls-30{fill:#e3e3e3;}.cls-31{fill:#e2e2e2;}.cls-32{fill:#e1e1e1;}.cls-33{fill:#e0e0e0;}.cls-34{fill:#dfdfdf;}.cls-35{fill:#dedede;}.cls-36{fill:#ddd;}.cls-37{fill:#dcdcdc;}.cls-38{fill:#dbdbdb;}.cls-39{fill:#dadada;}.cls-40{fill:#d9d9d9;}.cls-41{fill:#d8d8d8;}.cls-42{fill:#d7d7d7;}.cls-43{fill:#d6d6d6;}.cls-44{fill:#d5d5d5;}.cls-45{fill:#d4d4d4;}.cls-46{fill:#d3d3d3;}.cls-47{fill:#d2d2d2;}.cls-48{fill:#d1d1d1;}.cls-49{fill:#d0d0d0;}.cls-50{fill:#cfcfcf;}.cls-51{fill:#cecece;}.cls-52{fill:#cdcdcd;}.cls-53{fill:#ccc;}.cls-54{fill:#365b85;}</style><clipPath id="clip-path"><rect class="cls-1" x="6.72" y="7.3" width="50.55" height="49.4" rx="6.89"/></clipPath></defs><title>Collateral_Detail</title><g id="BG"><rect class="cls-2" width="64" height="64"/></g><g id="Collateral_Detail"><g id="Rectangle_793" data-name="Rectangle 793"><g class="cls-3"><path class="cls-2" d="M57.28,7.3h0Z"/><rect class="cls-2" x="6.72" y="7.3" width="50.55" height="0.97"/><rect class="cls-4" x="6.72" y="8.27" width="50.55" height="0.97"/><rect class="cls-5" x="6.72" y="9.24" width="50.55" height="0.97"/><rect class="cls-6" x="6.72" y="10.2" width="50.55" height="0.97"/><rect class="cls-7" x="6.72" y="11.17" width="50.55" height="0.97"/><rect class="cls-8" x="6.72" y="12.14" width="50.55" height="0.97"/><rect class="cls-9" x="6.72" y="13.11" width="50.55" height="0.97"/><rect class="cls-10" x="6.72" y="14.08" width="50.55" height="0.97"/><rect class="cls-11" x="6.72" y="15.05" width="50.55" height="0.97"/><rect class="cls-12" x="6.72" y="16.02" width="50.55" height="0.97"/><rect class="cls-13" x="6.72" y="16.98" width="50.55" height="0.97"/><rect class="cls-14" x="6.72" y="17.95" width="50.55" height="0.97"/><rect class="cls-15" x="6.72" y="18.92" width="50.55" height="0.97"/><rect class="cls-16" x="6.72" y="19.89" width="50.55" height="0.97"/><rect class="cls-17" x="6.72" y="20.86" width="50.55" height="0.97"/><rect class="cls-18" x="6.72" y="21.83" width="50.55" height="0.97"/><rect class="cls-19" x="6.72" y="22.8" width="50.55" height="0.97"/><rect class="cls-20" x="6.72" y="23.77" width="50.55" height="0.97"/><rect class="cls-21" x="6.72" y="24.73" width="50.55" height="0.97"/><rect class="cls-22" x="6.72" y="25.7" width="50.55" height="0.97"/><rect class="cls-23" x="6.72" y="26.67" width="50.55" height="0.97"/><rect class="cls-24" x="6.72" y="27.64" width="50.55" height="0.97"/><rect class="cls-25" x="6.72" y="28.61" width="50.55" height="0.97"/><rect class="cls-26" x="6.72" y="29.58" width="50.55" height="0.97"/><rect class="cls-27" x="6.72" y="30.55" width="50.55" height="0.97"/><rect class="cls-28" x="6.72" y="31.52" width="50.55" height="0.97"/><rect class="cls-29" x="6.72" y="32.48" width="50.55" height="0.97"/><rect class="cls-30" x="6.72" y="33.45" width="50.55" height="0.97"/><rect class="cls-31" x="6.72" y="34.42" width="50.55" height="0.97"/><rect class="cls-32" x="6.72" y="35.39" width="50.55" height="0.97"/><rect class="cls-33" x="6.72" y="36.36" width="50.55" height="0.97"/><rect class="cls-34" x="6.72" y="37.33" width="50.55" height="0.97"/><rect class="cls-35" x="6.72" y="38.3" width="50.55" height="0.97"/><rect class="cls-36" x="6.72" y="39.27" width="50.55" height="0.97"/><rect class="cls-37" x="6.72" y="40.23" width="50.55" height="0.97"/><rect class="cls-38" x="6.72" y="41.2" width="50.55" height="0.97"/><rect class="cls-39" x="6.72" y="42.17" width="50.55" height="0.97"/><rect class="cls-40" x="6.72" y="43.14" width="50.55" height="0.97"/><rect class="cls-41" x="6.72" y="44.11" width="50.55" height="0.97"/><rect class="cls-42" x="6.72" y="45.08" width="50.55" height="0.97"/><rect class="cls-43" x="6.72" y="46.05" width="50.55" height="0.97"/><rect class="cls-44" x="6.72" y="47.02" width="50.55" height="0.97"/><rect class="cls-45" x="6.72" y="47.98" width="50.55" height="0.97"/><rect class="cls-46" x="6.72" y="48.95" width="50.55" height="0.97"/><rect class="cls-47" x="6.72" y="49.92" width="50.55" height="0.97"/><rect class="cls-48" x="6.72" y="50.89" width="50.55" height="0.97"/><rect class="cls-49" x="6.72" y="51.86" width="50.55" height="0.97"/><rect class="cls-50" x="6.72" y="52.83" width="50.55" height="0.97"/><rect class="cls-51" x="6.72" y="53.8" width="50.55" height="0.97"/><rect class="cls-52" x="6.72" y="54.76" width="50.55" height="0.97"/><rect class="cls-53" x="6.72" y="55.73" width="50.55" height="0.97"/><path class="cls-53" d="M6.72,56.7h0Z"/></g></g><g id="Rectangle_793-2" data-name="Rectangle 793"><rect class="cls-1" x="6.72" y="7.3" width="50.55" height="49.4" rx="6.89"/><path class="cls-54" d="M50.38,57.13H13.62A7.33,7.33,0,0,1,6.3,49.81V14.19a7.33,7.33,0,0,1,7.32-7.32H50.38a7.33,7.33,0,0,1,7.32,7.32V49.81A7.33,7.33,0,0,1,50.38,57.13ZM13.62,8.87A5.32,5.32,0,0,0,8.3,14.19V49.81a5.32,5.32,0,0,0,5.32,5.32H50.38a5.32,5.32,0,0,0,5.32-5.32V14.19a5.32,5.32,0,0,0-5.32-5.32Z"/></g><g id="Group_49" data-name="Group 49"><g id="Path_45" data-name="Path 45"><polygon class="cls-54" points="39.38 24.53 29.89 24.53 29.89 14.07 31.43 14.07 31.43 22.98 39.38 22.98 39.38 24.53"/></g></g><g id="Group_50" data-name="Group 50"><g id="Path_46" data-name="Path 46"><path class="cls-54" d="M28.5,49.92H12.59V13.46H31.13l.39.39,4.58,5C40,23.12,40.27,23.46,40,24.09v4.39H38.45V23.83c-.29-.42-1.37-1.63-3.5-4l-.43-.48-4-4.35H14.13V48.38H28.5Z"/></g></g><g id="Group_51" data-name="Group 51"><g id="Rectangle_23" data-name="Rectangle 23"><rect class="cls-54" x="17.67" y="34.88" width="8.09" height="1.11"/></g></g><g id="Group_52" data-name="Group 52"><g id="Rectangle_24" data-name="Rectangle 24"><rect class="cls-54" x="17.67" y="38.53" width="8.09" height="1.11"/></g></g><g id="Group_53" data-name="Group 53"><g id="Rectangle_25" data-name="Rectangle 25"><rect class="cls-54" x="17.67" y="42.02" width="8.09" height="1.11"/></g></g><polygon class="cls-54" points="32.83 44.45 31.11 44.45 31.11 36.86 39.03 36.86 39.03 39.47 37.3 39.47 37.3 38.58 32.83 38.58 32.83 44.45"/><polygon class="cls-54" points="39.03 40.91 37.3 40.91 37.3 30.61 45.22 30.61 45.22 39.47 43.5 39.47 43.5 32.33 39.03 32.33 39.03 40.91"/><polygon class="cls-54" points="51.41 43.71 49.69 43.71 49.69 38.58 45.22 38.58 45.22 40.91 43.5 40.91 43.5 36.86 51.41 36.86 51.41 43.71"/><path class="cls-54" d="M50.33,51.1H47.17V49.38h1.44V48.32a.8.8,0,0,0-.81-.8H45.35L43.05,44H37.81l-1.89,3.54H32.74v1.86h1V51.1H31V45.8h3.87l1.89-3.54H44l2.3,3.54H47.8a2.52,2.52,0,0,1,2.53,2.52Z"/><path class="cls-54" d="M43.78,52.54a2.36,2.36,0,1,1,2.36-2.36A2.36,2.36,0,0,1,43.78,52.54Zm0-3a.63.63,0,0,0,0,1.26.63.63,0,1,0,0-1.26Z"/><path class="cls-54" d="M37.92,52.54a2.36,2.36,0,1,1,2.36-2.36A2.36,2.36,0,0,1,37.92,52.54Zm0-3a.63.63,0,1,0,.63.63A.63.63,0,0,0,37.92,49.55Z"/><rect class="cls-54" x="39.61" y="33.62" width="0.86" height="1.7"/><rect class="cls-54" x="41.53" y="33.62" width="0.86" height="1.7"/><rect class="cls-54" x="39.61" y="37.31" width="0.86" height="1.7"/><rect class="cls-54" x="41.53" y="37.31" width="0.86" height="1.7"/><rect class="cls-54" x="34.29" y="39.89" width="0.77" height="1.52"/><rect class="cls-54" x="47.02" y="40.05" width="0.86" height="1.7"/><path class="cls-54" d="M20.91,26.26H18.49v-.93h2.42a1.86,1.86,0,1,0,0-3.71H18.49v-.93h2.42a2.79,2.79,0,1,1,0,5.57Z"/><rect class="cls-54" x="18.49" y="20.69" width="6.45" height="0.93"/><rect class="cls-54" x="18.49" y="22.71" width="6.45" height="0.93"/><rect class="cls-54" x="20.36" y="24.78" width="0.93" height="6.45" transform="translate(-13.7 22.93) rotate(-45)"/></g></svg>