<?xml version="1.0" encoding="utf-8"?>
<!-- Generator: Adobe Illustrator 23.1.0, SVG Export Plug-In . SVG Version: 6.00 Build 0)  -->
<svg version="1.1" id="Layer_1" xmlns="http://www.w3.org/2000/svg" xmlns:xlink="http://www.w3.org/1999/xlink" x="0px" y="0px"
	 viewBox="0 0 64 64" style="enable-background:new 0 0 64 64;" xml:space="preserve">
<style type="text/css">
	.st0{display:none;}
	.st1{display:inline;}
	.st2{fill:#16A200;}
	.st3{fill:#2700E7;}
	.st4{display:inline;fill:#231F20;}
	.st5{display:inline;fill:#F47E20;}
	.st6{display:inline;fill:#DAEEF4;}
	.st7{fill:none;stroke:#000000;stroke-width:2;stroke-miterlimit:10;}
	.st8{display:inline;fill:none;stroke:#231F20;stroke-width:2;stroke-miterlimit:10;}
	.st9{fill:#231F20;}
	.st10{fill:#FFFFFF;}
	.st11{fill:none;stroke:#231F20;stroke-width:2;stroke-miterlimit:10;}
	.st12{font-family:'Arial-BoldMT';}
	.st13{font-size:18.305px;}
	.st14{fill:none;stroke:#231F20;stroke-width:2;stroke-miterlimit:9.9999;}
	.st15{font-family:'Arial-Black';}
	.st16{font-size:48.3206px;}
</style>
<g class="st0">
	<g class="st1">
		<rect class="st2" width="64" height="5"/>
		<rect class="st2" width="5" height="64"/>
		<rect x="59" class="st2" width="5" height="64"/>
		<rect y="59" class="st2" width="64" height="5"/>
		<rect x="5" y="5" class="st3" width="54" height="54"/>
	</g>
	<rect x="16" y="-13" class="st4" width="7" height="7"/>
	<rect x="26" y="-13" class="st5" width="7" height="7"/>
	<rect x="35" y="-13" class="st6" width="7" height="7"/>
	<g class="st1">
		<path class="st7" d="M61.4-20.61h5.22c2.76,0,5,2.24,5,5l0,0c0,2.76-2.24,5-5,5H61.4"/>
		<line class="st7" x1="61.4" y1="-20.61" x2="75.31" y2="-20.61"/>
		<line class="st7" x1="61.4" y1="-16.26" x2="75.31" y2="-16.26"/>
		<line class="st7" x1="61.5" y1="-10.77" x2="71.34" y2="-0.93"/>
	</g>
	<rect x="15.38" y="-24.73" class="st8" width="8.23" height="8.23"/>
	<g class="st1">
		<path id="Path_47_1_" class="st9" d="M48.92-38.82L48.92-38.82c-1.88,1.61-3.77,3.36-5.65,4.98l0,0
			c-0.94-0.94-1.75-2.02-2.69-2.96c0.4-0.4,0.81-0.67,1.21-1.08c0.54,0.54,1.08,1.21,1.61,1.75c1.48-1.34,2.96-2.56,4.44-3.9v0.13
			C48.27-39.61,48.63-39.25,48.92-38.82C48.78-38.96,48.92-38.96,48.92-38.82z"/>
		<g>
			<path class="st9" d="M44.75-28.44c-4.69,0-8.5-3.81-8.5-8.5s3.81-8.5,8.5-8.5s8.5,3.81,8.5,8.5S49.44-28.44,44.75-28.44z
				 M44.75-43.45c-3.59,0-6.5,2.92-6.5,6.5s2.92,6.5,6.5,6.5s6.5-2.92,6.5-6.5S48.34-43.45,44.75-43.45z"/>
		</g>
		<g>
			<path class="st9" d="M45.56-18.72h-1.62c-0.64,0-1.14-0.55-1.09-1.19l0.81-9.29c0.05-0.56,0.52-1,1.09-1l0,0
				c0.57,0,1.04,0.43,1.09,1l0.81,9.29C46.7-19.26,46.2-18.72,45.56-18.72z"/>
		</g>
	</g>
</g>
<g id="Layer_20" class="st0">
	<g id="Group_830" transform="translate(-156 -292)" class="st1">
		<g id="Rectangle_793" transform="translate(156 292)">
			<path class="st10" d="M13.62,7.3h36.77c3.81,0,6.89,3.09,6.89,6.89v35.62c0,3.81-3.09,6.89-6.89,6.89H13.62
				c-3.81,0-6.89-3.09-6.89-6.89V14.19C6.72,10.38,9.81,7.3,13.62,7.3z"/>
			<path class="st11" d="M13.62,7.87h36.77c3.49,0,6.32,2.83,6.32,6.32v35.62c0,3.49-2.83,6.32-6.32,6.32H13.62
				c-3.49,0-6.32-2.83-6.32-6.32V14.19C7.3,10.7,10.13,7.87,13.62,7.87z"/>
		</g>
		<g id="Group_48" transform="translate(163.5 297.648)">
			<g id="Group_47">
				<path id="Path_42" class="st11" d="M18.76,16.99c0.29-0.26,0.38-0.68,0.23-1.03v-0.8c0-0.69-0.11-1.26-0.11-1.95
					c0.07-1.27,0.7-2.45,1.72-3.22c0.22-0.22,0.38-0.5,0.46-0.8c0.09-0.17,0.2-0.33,0.34-0.46c0.57-0.34,1.26-0.11,2.07,0.23
					c0.34,0.11,0.69,0.11,0.92,0.34c0.8,0.8,1.26,0.23,1.95,0.23c0.66-0.04,1.32,0.03,1.95,0.23c0.61,0.26,1.16,0.66,1.61,1.15
					c0.72,0.92,1.12,2.05,1.15,3.22c0.02,0.16-0.02,0.32-0.11,0.46c0,0.57-0.11,1.15-0.11,1.61v1.95c-0.06,0.48-0.22,0.95-0.46,1.38
					c-0.11,0.23-0.23,0.34-0.23,0.57v0.11c-0.47,1.88-1.57,3.54-3.1,4.71c-1.49,1.16-3.62,1.01-4.94-0.34
					c-1.39-1.18-2.33-2.8-2.64-4.6c-0.03-0.17-0.11-0.33-0.23-0.46c-0.39-0.7-0.59-1.49-0.57-2.3
					C18.71,17.16,18.75,17.07,18.76,16.99z"/>
				<g id="Group_46">
					<path id="Path_43" class="st11" d="M29.56,28.02c6.93,2.11,11.68,8.49,11.72,15.74"/>
					<path id="Path_44" class="st11" d="M8.41,43.87c-0.01-7.23,4.7-13.61,11.6-15.74"/>
					<g id="Group_45">
						<line id="Line_21" class="st11" x1="24.96" y1="35.6" x2="29.33" y2="28.02"/>
						<line id="Line_22" class="st11" x1="24.84" y1="35.6" x2="20.48" y2="28.02"/>
					</g>
				</g>
			</g>
			<line id="Line_23" class="st11" x1="15.65" y1="43.87" x2="15.65" y2="37.32"/>
			<line id="Line_24" class="st11" x1="34.04" y1="43.87" x2="34.04" y2="37.32"/>
		</g>
	</g>
</g>
<g id="Basic_Details" class="st0">
	<g id="Group_831" transform="translate(15021 479)" class="st1">
		<g id="Rectangle_824" transform="translate(-15021 -479)">
			<path class="st11" d="M13.62,7.3h36.77c3.81,0,6.89,3.09,6.89,6.89v35.62c0,3.81-3.09,6.89-6.89,6.89H13.62
				c-3.81,0-6.89-3.09-6.89-6.89V14.19C6.72,10.38,9.81,7.3,13.62,7.3z"/>
			<path class="st11" d="M13.62,7.87h36.77c3.49,0,6.32,2.83,6.32,6.32v35.62c0,3.49-2.83,6.32-6.32,6.32H13.62
				c-3.49,0-6.32-2.83-6.32-6.32V14.19C7.3,10.7,10.13,7.87,13.62,7.87z"/>
		</g>
		<g id="Group_44" transform="translate(-15015.5 -473.5)">
			<g id="Group_43">
				<g id="Group_41">
					<g id="Group_40">
						<path id="Path_39" class="st11" d="M22.16,12.23c0.28-0.28,0.14-0.42,0.14-0.69l0,0V9.87c0.08-0.81,0.48-1.56,1.11-2.08
							c0.17-0.13,0.27-0.34,0.28-0.55c0.14-0.14,0.14-0.28,0.28-0.28c0.28-0.28,0.83,0,1.25,0.14c0.14,0.14,0.42,0,0.55,0.14
							c0.55,0.55,0.83,0.14,1.25,0.14c0.42-0.03,0.84,0.02,1.25,0.14c0.43,0.18,0.81,0.47,1.11,0.83c0.5,0.57,0.75,1.32,0.69,2.08
							v0.28c0,0.28-0.14,0.55-0.14,0.97v1.39c0.02,0.3-0.08,0.6-0.28,0.83c-0.08,0.07-0.13,0.17-0.14,0.28v0.14
							c-0.27,1.25-1.01,2.34-2.08,3.05c-0.96,0.72-2.29,0.67-3.19-0.14c-0.86-0.76-1.44-1.78-1.66-2.91c0-0.14,0-0.28-0.14-0.28
							C22.15,13.48,22.05,12.84,22.16,12.23z"/>
						<g id="Group_39">
							<path id="Path_40" class="st11" d="M29.09,21.59c4.55,1.33,7.66,5.52,7.62,10.25"/>
							<path id="Path_41" class="st11" d="M15.37,31.85c-0.03-4.66,3.02-8.78,7.48-10.11"/>
							<g id="Group_38">
								<line id="Line_14" class="st11" x1="26.04" y1="26.44" x2="28.95" y2="21.59"/>
								<line id="Line_15" class="st11" x1="26.04" y1="26.44" x2="23.27" y2="21.59"/>
							</g>
						</g>
					</g>
					<line id="Line_16" class="st11" x1="20.08" y1="31.85" x2="20.08" y2="27.55"/>
					<line id="Line_17" class="st11" x1="32" y1="31.85" x2="32" y2="27.55"/>
				</g>
				<g id="Group_42">
					<line id="Line_18" class="st11" x1="8.86" y1="36.42" x2="23.41" y2="36.42"/>
					<line id="Line_19" class="st11" x1="28.67" y1="36.42" x2="43.22" y2="36.42"/>
					<line id="Line_20" class="st11" x1="8.86" y1="43.07" x2="43.22" y2="43.07"/>
				</g>
			</g>
		</g>
	</g>
</g>
<g id="Customer_Details" class="st0">
	<g id="Group_830_1_" transform="translate(-156 -292)" class="st1">
		<g id="Group_48_2_" transform="translate(163.5 297.648)">
			<g id="Group_47_2_">
				<path id="Path_42_2_" class="st11" d="M17.54,21.14c0.35-0.31,0.46-0.81,0.28-1.24v-0.97c0-0.83-0.14-1.52-0.14-2.34
					c0.09-1.53,0.84-2.94,2.07-3.86c0.26-0.27,0.45-0.6,0.55-0.97c0.1-0.21,0.24-0.39,0.41-0.55c0.69-0.41,1.52-0.14,2.48,0.28
					c0.41,0.14,0.83,0.14,1.1,0.41c0.97,0.97,1.52,0.28,2.34,0.28c0.79-0.05,1.59,0.04,2.34,0.28c0.73,0.32,1.39,0.79,1.93,1.38
					c0.86,1.1,1.35,2.46,1.38,3.86c0.02,0.19-0.03,0.39-0.14,0.55c0,0.69-0.14,1.38-0.14,1.93v2.34c-0.08,0.58-0.27,1.14-0.55,1.65
					c-0.14,0.28-0.28,0.41-0.28,0.69V25c-0.57,2.25-1.88,4.24-3.72,5.65c-1.79,1.39-4.35,1.21-5.93-0.41
					c-1.67-1.41-2.79-3.36-3.17-5.52c-0.03-0.21-0.13-0.4-0.28-0.55c-0.47-0.84-0.71-1.79-0.69-2.76
					C17.48,21.34,17.53,21.25,17.54,21.14z"/>
				<g id="Group_46_2_">
					<path id="Path_43_2_" class="st11" d="M30.5,34.38c8.32,2.54,14.02,10.19,14.07,18.89"/>
					<path id="Path_44_2_" class="st11" d="M5.13,53.41c-0.01-8.67,5.64-16.34,13.93-18.89"/>
					<g id="Group_45_2_">
						<line id="Line_21_2_" class="st11" x1="24.98" y1="43.48" x2="30.22" y2="34.38"/>
						<line id="Line_22_2_" class="st11" x1="24.84" y1="43.48" x2="19.6" y2="34.38"/>
					</g>
				</g>
			</g>
			<line id="Line_23_2_" class="st11" x1="13.81" y1="53.41" x2="13.81" y2="45.55"/>
			<line id="Line_24_2_" class="st11" x1="35.88" y1="53.41" x2="35.88" y2="45.55"/>
		</g>
	</g>
	<g id="Group_830_2_" transform="translate(-156 -292)" class="st1">
		<g id="Group_48_3_" transform="translate(163.5 297.648)">
			<g id="Group_47_3_">
				<path id="Path_42_3_" class="st11" d="M37.17,9.26c0.28-0.25,0.37-0.66,0.22-1V7.48c0-0.67-0.11-1.23-0.11-1.89
					c0.07-1.24,0.68-2.38,1.67-3.12c0.21-0.22,0.37-0.49,0.45-0.78c0.08-0.17,0.2-0.32,0.33-0.45c0.56-0.33,1.23-0.11,2.01,0.22
					c0.33,0.11,0.67,0.11,0.89,0.33c0.78,0.78,1.23,0.22,1.89,0.22c0.64-0.04,1.28,0.03,1.89,0.22c0.59,0.26,1.13,0.64,1.56,1.11
					c0.7,0.89,1.09,1.99,1.11,3.12c0.02,0.16-0.02,0.31-0.11,0.45c0,0.56-0.11,1.11-0.11,1.56v1.89c-0.06,0.47-0.21,0.92-0.45,1.34
					c-0.11,0.22-0.22,0.33-0.22,0.56v0.11c-0.46,1.82-1.52,3.43-3.01,4.57c-1.45,1.13-3.51,0.98-4.79-0.33
					c-1.35-1.14-2.26-2.72-2.56-4.46c-0.03-0.17-0.11-0.32-0.22-0.45c-0.38-0.68-0.57-1.45-0.56-2.23
					C37.12,9.43,37.16,9.35,37.17,9.26z"/>
				<g id="Group_46_3_">
					<path id="Path_43_5_" class="st11" d="M47.64,19.96c1.38,0.42,2.68,1.02,3.86,1.76"/>
					<path id="Path_44_4_" class="st11" d="M34.39,21.94c0.64-0.41,1.3-0.78,2-1.11c0.64-0.3,1.31-0.55,2-0.77"/>
					<g id="Group_45_3_">
						<line id="Line_21_3_" class="st11" x1="43.18" y1="27.32" x2="47.42" y2="19.96"/>
						<line id="Line_22_3_" class="st11" x1="43.07" y1="27.32" x2="38.84" y2="19.96"/>
					</g>
				</g>
			</g>
		</g>
	</g>
	<g id="Group_830_3_" transform="translate(-156 -292)" class="st1">
		<g id="Group_48_4_" transform="translate(163.5 297.648)">
			<g id="Group_47_4_">
				<path id="Path_42_4_" class="st11" d="M0.38,9.26c0.28-0.25,0.37-0.66,0.22-1V7.48c0-0.67-0.11-1.23-0.11-1.89
					c0.07-1.24,0.68-2.38,1.67-3.12c0.21-0.22,0.37-0.49,0.45-0.78c0.08-0.17,0.2-0.32,0.33-0.45C3.5,0.91,4.17,1.13,4.95,1.46
					C5.29,1.57,5.62,1.57,5.84,1.8c0.78,0.78,1.23,0.22,1.89,0.22c0.64-0.04,1.28,0.03,1.89,0.22c0.59,0.26,1.13,0.64,1.56,1.11
					c0.7,0.89,1.09,1.99,1.11,3.12c0.02,0.16-0.02,0.31-0.11,0.45c0,0.56-0.11,1.11-0.11,1.56v1.89c-0.06,0.47-0.21,0.92-0.45,1.34
					c-0.11,0.22-0.22,0.33-0.22,0.56v0.11c-0.46,1.82-1.52,3.43-3.01,4.57c-1.45,1.13-3.51,0.98-4.79-0.33
					c-1.35-1.14-2.26-2.72-2.56-4.46c-0.03-0.17-0.11-0.32-0.22-0.45c-0.38-0.68-0.57-1.45-0.56-2.23C0.34,9.43,0.38,9.35,0.38,9.26
					z"/>
				<g id="Group_46_4_">
					<path id="Path_43_3_" class="st11" d="M10.86,19.96c1.11,0.34,2.16,0.79,3.14,1.33"/>
					<path id="Path_44_5_" class="st11" d="M-2.63,22.1c1.28-0.87,2.7-1.56,4.24-2.03"/>
					<g id="Group_45_4_">
						<line id="Line_21_4_" class="st11" x1="6.4" y1="27.32" x2="10.64" y2="19.96"/>
						<line id="Line_22_4_" class="st11" x1="6.29" y1="27.32" x2="2.06" y2="19.96"/>
					</g>
				</g>
			</g>
		</g>
	</g>
</g>
<g id="BT" class="st0">
	<g class="st1">
		<g>
			<line class="st11" x1="21.51" y1="43.04" x2="21.51" y2="56.32"/>
			<g>
				<polygon class="st11" points="21.51,41.11 38.29,25.11 55.1,41.11 				"/>
				<line class="st11" x1="18.1" y1="58.4" x2="58.78" y2="58.4"/>
				<line class="st11" x1="26.87" y1="43.04" x2="26.87" y2="56.32"/>
				<line class="st11" x1="54.28" y1="43.04" x2="54.28" y2="56.32"/>
				<line class="st11" x1="48.92" y1="43.04" x2="48.92" y2="56.32"/>
				<polyline class="st11" points="34.8,55.3 34.8,48.4 41.8,48.4 41.8,55.3 				"/>
				<circle class="st9" cx="38.3" cy="34.87" r="2.3"/>
			</g>
		</g>
		<g>
			<line class="st11" x1="7.83" y1="19.35" x2="7.83" y2="29.54"/>
			<g>
				<polygon class="st11" points="7.83,17.87 20.7,5.6 33.6,17.87 				"/>
				<line class="st11" x1="5.22" y1="31.14" x2="24.74" y2="31.14"/>
				<line class="st11" x1="11.94" y1="19.35" x2="11.94" y2="29.54"/>
				<line class="st11" x1="32.97" y1="19.35" x2="32.97" y2="23.47"/>
				<line class="st11" x1="28.86" y1="19.35" x2="28.86" y2="25.54"/>
				<polyline class="st11" points="17.88,28.75 17.88,23.47 23.55,23.47 23.55,28.75 				"/>
				<circle class="st9" cx="20.71" cy="13.09" r="1.76"/>
			</g>
		</g>
		<polyline class="st11" points="37.99,9.58 51.01,9.58 51.01,28.75 		"/>
		<polyline class="st11" points="57.44,22.33 51.01,28.75 44.59,22.33 		"/>
	</g>
</g>
<g id="Due_diligence_1_" class="st0">
	<g class="st1">
		<g id="Group_49_1_">
			<path id="Path_45_1_" class="st11" d="M47.59,20.14H35.43V6.66"/>
		</g>
		<g id="Group_50_1_">
			<path id="Path_46_2_" class="st11" d="M32.43,55.49H11.35V6.88h24.3l0.22,0.22l5.74,6.19c5.74,6.41,5.97,6.63,5.74,7.07v13.55"/>
		</g>
		<g>
			<g id="Group_51_1_">
				<rect id="Rectangle_23_1_" x="17.17" y="17.92" class="st9" width="11.27" height="1.55"/>
			</g>
			<g id="Group_52_1_">
				<rect id="Rectangle_24_1_" x="17.17" y="23" class="st9" width="11.27" height="1.55"/>
			</g>
			<g id="Group_53_1_">
				<rect id="Rectangle_25_1_" x="17.17" y="27.86" class="st9" width="11.27" height="1.55"/>
			</g>
		</g>
		<g>
			<g>
				<g>
					<path class="st9" d="M44.88,49.57c-3.32,3.32-8.71,3.32-12.03,0s-3.32-8.71,0-12.03s8.71-3.32,12.03,0S48.2,46.25,44.88,49.57z
						 M34.27,38.96c-2.54,2.54-2.54,6.66,0,9.2s6.66,2.54,9.2,0s2.54-6.66,0-9.2S36.81,36.42,34.27,38.96z"/>
				</g>
				<g>
					<path class="st9" d="M52.33,55.87l-1.15,1.15c-0.45,0.45-1.2,0.42-1.61-0.07l-5.99-7.14c-0.36-0.43-0.34-1.07,0.06-1.47l0,0
						c0.4-0.4,1.04-0.43,1.47-0.06l7.14,5.99C52.75,54.68,52.78,55.42,52.33,55.87z"/>
				</g>
			</g>
			<path id="Path_47_2_" class="st9" d="M43.04,41.67L43.04,41.67c-1.88,1.61-3.77,3.36-5.65,4.98l0,0
				c-0.94-0.94-1.75-2.02-2.69-2.96c0.4-0.4,0.81-0.67,1.21-1.08c0.54,0.54,1.08,1.21,1.61,1.75c1.48-1.34,2.96-2.56,4.44-3.9v0.13
				C42.39,40.89,42.75,41.25,43.04,41.67C42.91,41.54,43.04,41.54,43.04,41.67z"/>
		</g>
	</g>
</g>
<g id="Reference" class="st0">
	<g id="Group_830_5_" transform="translate(-156 -292)" class="st1">
		<g id="Group_48_6_" transform="translate(163.5 297.648)">
			<g id="Group_47_6_">
				<path id="Path_42_6_" class="st11" d="M28.31,26.84c0.28-0.26,0.38-0.67,0.23-1.02v-0.79c0-0.68-0.11-1.25-0.11-1.93
					c0.07-1.26,0.69-2.42,1.7-3.18c0.22-0.22,0.37-0.5,0.45-0.79c0.08-0.17,0.2-0.32,0.34-0.45c0.57-0.34,1.25-0.11,2.04,0.23
					C33.3,19,33.65,19,33.87,19.23c0.79,0.79,1.25,0.23,1.93,0.23c0.65-0.04,1.31,0.03,1.93,0.23c0.6,0.26,1.15,0.65,1.59,1.14
					c0.71,0.91,1.11,2.02,1.14,3.18c0.02,0.16-0.02,0.32-0.11,0.45c0,0.57-0.11,1.14-0.11,1.59v1.93c-0.06,0.48-0.22,0.94-0.45,1.36
					c-0.11,0.23-0.23,0.34-0.23,0.57v0.11c-0.47,1.85-1.55,3.49-3.07,4.66c-1.48,1.15-3.58,1-4.88-0.34
					c-1.37-1.16-2.3-2.77-2.61-4.54c-0.03-0.17-0.11-0.33-0.23-0.45c-0.39-0.69-0.58-1.48-0.57-2.27
					C28.26,27.01,28.3,26.92,28.31,26.84z"/>
				<g id="Group_46_6_">
					<path id="Path_43_6_" class="st11" d="M38.98,37.74c6.85,2.09,11.55,8.39,11.58,15.56"/>
					<path id="Path_44_6_" class="st11" d="M18.09,53.41c-0.01-7.14,4.64-13.45,11.47-15.56"/>
					<g id="Group_45_6_">
						<line id="Line_21_6_" class="st11" x1="34.44" y1="45.23" x2="38.75" y2="37.74"/>
						<line id="Line_22_6_" class="st11" x1="34.33" y1="45.23" x2="30.01" y2="37.74"/>
					</g>
				</g>
			</g>
			<line id="Line_23_3_" class="st11" x1="25.24" y1="53.41" x2="25.24" y2="46.94"/>
			<line id="Line_24_3_" class="st11" x1="43.41" y1="53.41" x2="43.41" y2="46.94"/>
		</g>
	</g>
	<g id="Group_830_4_" transform="translate(-156 -292)" class="st1">
		<g id="Group_48_5_" transform="translate(163.5 297.648)">
			<g id="Group_47_5_">
				<path id="Path_42_5_" class="st11" d="M1.91,10.68c0.33-0.3,0.43-0.77,0.26-1.18V8.59c0-0.78-0.13-1.44-0.13-2.22
					C2.12,4.92,2.84,3.58,4,2.71c0.25-0.26,0.43-0.57,0.52-0.92c0.1-0.2,0.23-0.37,0.39-0.52c0.65-0.39,1.44-0.13,2.35,0.26
					c0.39,0.13,0.78,0.13,1.05,0.39c0.92,0.92,1.44,0.26,2.22,0.26c0.75-0.05,1.5,0.04,2.22,0.26c0.7,0.3,1.32,0.75,1.83,1.31
					c0.82,1.05,1.28,2.33,1.31,3.66c0.02,0.18-0.03,0.37-0.13,0.52c0,0.65-0.13,1.31-0.13,1.83v2.22c-0.07,0.55-0.25,1.08-0.52,1.57
					c-0.13,0.26-0.26,0.39-0.26,0.65v0.13c-0.54,2.13-1.78,4.02-3.53,5.36c-1.7,1.32-4.12,1.15-5.62-0.39
					c-1.58-1.34-2.65-3.19-3.01-5.23c-0.03-0.2-0.12-0.38-0.26-0.52c-0.45-0.8-0.67-1.7-0.65-2.61C1.85,10.88,1.9,10.78,1.91,10.68z
					"/>
				<g id="Group_46_5_">
					<path id="Path_43_4_" class="st11" d="M14.2,23.23c1.3,0.4,2.53,0.92,3.68,1.57"/>
					<path id="Path_44_3_" class="st11" d="M-1.63,25.74c1.5-1.02,3.17-1.83,4.97-2.38"/>
					<g id="Group_45_5_">
						<line id="Line_21_5_" class="st11" x1="8.97" y1="31.86" x2="13.93" y2="23.23"/>
						<line id="Line_22_5_" class="st11" x1="8.84" y1="31.86" x2="3.87" y2="23.23"/>
					</g>
				</g>
			</g>
		</g>
	</g>
	<path class="st8" d="M17.55,29.72"/>
	<path class="st8" d="M16.48,46.72"/>
	<g class="st1">
		<path class="st11" d="M10.06,42.59v0.37C10.06,49.06,15,54,21.09,54h1.34"/>
		<polyline class="st11" points="5.85,46.17 10.06,41.97 14.26,46.17 		"/>
	</g>
</g>
<g id="Case_x5F_synopsis" class="st0">
	<g id="Group_830_6_" transform="translate(-156 -292)" class="st1">
		<g id="Group_48_7_" transform="translate(163.5 297.648)">
			<g id="Group_47_7_">
				<g id="Path_42_7_">
					<path class="st9" d="M88.44,18.76c-0.65,0-1.31-0.26-1.79-0.76c-0.79-0.67-1.35-1.64-1.54-2.71l-0.06-0.07
						c-0.25-0.45-0.38-0.97-0.37-1.49V13.5l0.07-0.07l0.01-0.07l0.13-0.11l-0.03-0.07v-0.53c0-0.17-0.01-0.32-0.03-0.47
						c-0.02-0.18-0.03-0.37-0.03-0.57c0.05-0.85,0.44-1.6,1.08-2.1c0.04-0.05,0.07-0.11,0.09-0.17l0.04-0.1
						c0.07-0.15,0.17-0.28,0.3-0.4l0.09-0.07c0.57-0.34,1.2-0.07,1.58,0.09c0,0,0.04,0.01,0.08,0.01c0.15,0.04,0.39,0.09,0.58,0.28
						c0.06,0.06,0.09,0.07,0.09,0.07c0.01,0,0.07-0.02,0.11-0.03c0.11-0.03,0.27-0.07,0.45-0.07c0.38-0.03,0.79,0.02,1.19,0.15
						l0.05,0.02c0.4,0.17,0.74,0.42,1.03,0.74c0.47,0.6,0.73,1.32,0.75,2.05c0.01,0.11-0.01,0.25-0.06,0.39
						c-0.01,0.13-0.02,0.27-0.03,0.39s-0.03,0.22-0.03,0.32v1.1c-0.04,0.32-0.15,0.63-0.31,0.92c-0.01,0.02-0.03,0.06-0.05,0.09l0,0
						l-0.02,0.14c-0.28,1.1-0.93,2.09-1.83,2.78C89.52,18.59,88.98,18.76,88.44,18.76z M85.96,14.65c0.11,0.13,0.18,0.29,0.21,0.46
						c0.14,0.82,0.58,1.57,1.21,2.11c0.55,0.56,1.36,0.62,1.94,0.17c0.7-0.53,1.21-1.29,1.43-2.14c0-0.23,0.09-0.38,0.14-0.48
						l0.03-0.06c0.1-0.18,0.16-0.35,0.19-0.53V13.2c0-0.13,0.01-0.28,0.03-0.43c0.01-0.13,0.03-0.27,0.03-0.42v-0.16l0.06-0.09
						c-0.03-0.52-0.2-0.98-0.49-1.36c-0.15-0.17-0.37-0.33-0.61-0.43c-0.26-0.08-0.54-0.11-0.81-0.09c-0.07,0-0.13,0.02-0.2,0.04
						c-0.25,0.07-0.72,0.2-1.22-0.29c-0.03-0.01-0.06-0.01-0.09-0.02c-0.07-0.02-0.14-0.03-0.22-0.06c-0.16-0.07-0.47-0.2-0.61-0.18
						c0,0,0,0,0,0.01c-0.07,0.22-0.19,0.42-0.36,0.59l-0.06,0.05c-0.41,0.31-0.67,0.79-0.7,1.3c0,0.13,0.02,0.29,0.03,0.44
						c0.02,0.18,0.03,0.37,0.03,0.57v0.34c0.09,0.31,0.02,0.65-0.18,0.9C85.76,14.16,85.84,14.42,85.96,14.65z M91.24,12.13
						c0,0.01,0,0.02,0,0.03C91.24,12.15,91.24,12.14,91.24,12.13z M87.87,9.93L87.87,9.93L87.87,9.93z"/>
				</g>
				<g id="Group_46_7_">
					<g id="Path_43_7_">
						<path class="st9" d="M96.64,27.78c-0.02-3.62-2.36-6.76-5.82-7.81l0.31-1.02c3.91,1.19,6.55,4.74,6.57,8.83H96.64z"/>
					</g>
					<g id="Path_44_7_">
						<path class="st9" d="M79.27,27.84c-0.01-4.08,2.61-7.63,6.51-8.83l0.31,1.02c-3.45,1.06-5.76,4.2-5.76,7.81H79.27z"/>
					</g>
					<g id="Group_45_7_">
						<g id="Line_21_7_">
							
								<rect x="87.39" y="20.92" transform="matrix(0.4992 -0.8665 0.8665 0.4992 26.3398 88.4751)" class="st9" width="4.63" height="1.07"/>
						</g>
						<g id="Line_22_7_">
							
								<rect x="86.8" y="19.15" transform="matrix(0.8666 -0.4989 0.4989 0.8666 0.9354 46.4362)" class="st9" width="1.07" height="4.63"/>
						</g>
					</g>
				</g>
			</g>
			<g id="Line_23_4_">
				<rect x="83.1" y="24.37" class="st9" width="1.07" height="3.46"/>
			</g>
			<g id="Line_24_4_">
				<rect x="92.82" y="24.37" class="st9" width="1.07" height="3.46"/>
			</g>
		</g>
	</g>
	<polyline class="st8" points="39.53,10.77 39.53,6.48 6.28,6.48 6.28,27.64 20.43,27.64 36.2,36.39 33.04,27.64 39.53,27.64 
		39.53,23.21 	"/>
	<path id="Path_47_3_" class="st4" d="M51.25,9.89L51.25,9.89c-4.39,3.76-8.77,7.83-13.16,11.59l0,0c-2.19-2.19-4.07-4.7-6.27-6.89
		c0.94-0.94,1.88-1.57,2.82-2.51c1.25,1.25,2.51,2.82,3.76,4.07c3.45-3.13,6.89-5.95,10.34-9.09v0.31
		C49.73,8.06,50.58,8.91,51.25,9.89C50.94,9.58,51.25,9.58,51.25,9.89z"/>
	<line class="st8" x1="11.4" y1="14.06" x2="24.13" y2="14.06"/>
	<line class="st8" x1="11.4" y1="19.18" x2="24.13" y2="19.18"/>
	<g id="Group_830_7_" transform="translate(-156 -292)" class="st1">
		<g id="Group_48_8_" transform="translate(163.5 297.648)">
			<g id="Group_47_8_">
				<path id="Path_42_8_" class="st11" d="M35.2,32.17c0.33-0.3,0.43-0.77,0.26-1.18v-0.92c0-0.78-0.13-1.44-0.13-2.22
					c0.08-1.45,0.8-2.79,1.96-3.66c0.25-0.26,0.43-0.57,0.52-0.92c0.1-0.2,0.23-0.37,0.39-0.52c0.65-0.39,1.44-0.13,2.35,0.26
					c0.39,0.13,0.78,0.13,1.05,0.39c0.92,0.92,1.44,0.26,2.22,0.26c0.75-0.05,1.5,0.04,2.22,0.26c0.7,0.3,1.32,0.75,1.83,1.31
					c0.82,1.05,1.28,2.33,1.31,3.66c0.02,0.18-0.03,0.37-0.13,0.52c0,0.65-0.13,1.31-0.13,1.83v2.22c-0.07,0.55-0.25,1.08-0.52,1.57
					c-0.13,0.26-0.26,0.39-0.26,0.65v0.13c-0.54,2.13-1.78,4.02-3.53,5.36c-1.7,1.32-4.12,1.15-5.62-0.39
					c-1.58-1.34-2.65-3.19-3.01-5.23c-0.03-0.2-0.12-0.38-0.26-0.52c-0.45-0.8-0.67-1.7-0.65-2.61
					C35.14,32.37,35.19,32.27,35.2,32.17z"/>
				<g id="Group_46_8_">
					<path id="Path_43_8_" class="st11" d="M47.49,44.72c1.3,0.4,2.53,0.92,3.68,1.57"/>
					<path id="Path_44_8_" class="st11" d="M31.67,47.23c1.5-1.02,3.17-1.83,4.97-2.38"/>
					<g id="Group_45_8_">
						<line id="Line_21_8_" class="st11" x1="42.26" y1="53.35" x2="47.23" y2="44.72"/>
						<line id="Line_22_8_" class="st11" x1="42.13" y1="53.35" x2="37.16" y2="44.72"/>
					</g>
				</g>
			</g>
		</g>
	</g>
</g>
<g id="Deviation" class="st0">
	<g class="st1">
		<path class="st11" d="M43.1,6.08c8.19,0,14.82,6.64,14.82,14.82l-23.93,9.11L43.1,6.08z"/>
		<path class="st11" d="M27.38,36.62l8.6-22.59c-7.89-2.71-16.99-0.92-23.29,5.38c-8.81,8.81-8.81,23.09,0,31.9s23.09,8.81,31.9,0
			c6.3-6.3,8.09-15.4,5.38-23.29L27.38,36.62z"/>
	</g>
</g>
<g id="Deal_x5F_Recommendation_x5F_Merits" class="st0">
	<path id="Path_63_2_" class="st8" d="M27.5,55H6.96V7.58h37.09v14.94"/>
	<line id="Line_35_1_" class="st8" x1="11.97" y1="16.81" x2="36.03" y2="16.81"/>
	<line id="Line_36_1_" class="st8" x1="11.97" y1="22.52" x2="33.22" y2="22.52"/>
	<path id="Line_39_4_" class="st8" d="M22.2,39.56"/>
	<path id="Line_39_3_" class="st8" d="M11.97,39.56"/>
	<path id="Line_40_4_" class="st8" d="M18.99,45.18"/>
	<path id="Line_40_3_" class="st8" d="M11.97,45.18"/>
	<g class="st1">
		<polygon class="st11" points="42.05,28.93 46.6,38.14 56.76,39.62 49.41,46.79 51.14,56.91 42.05,52.13 32.96,56.91 34.69,46.79 
			27.34,39.62 37.5,38.14 		"/>
	</g>
	<path id="Path_47_4_" class="st4" d="M46.17,42.01L46.17,42.01c-1.88,1.61-3.77,3.36-5.65,4.98l0,0c-0.94-0.94-1.75-2.02-2.69-2.96
		c0.4-0.4,0.81-0.67,1.21-1.08c0.54,0.54,1.08,1.21,1.61,1.75c1.48-1.34,2.96-2.56,4.44-3.9v0.13
		C45.52,41.22,45.88,41.59,46.17,42.01C46.03,41.88,46.17,41.88,46.17,42.01z"/>
</g>
<g id="Sanction_Conditons" class="st0">
	<path id="Path_63_1_" class="st8" d="M27.5,55H6.96V7.58h37.09v30.4"/>
	<line id="Line_35_2_" class="st8" x1="11.97" y1="16.81" x2="36.03" y2="16.81"/>
	<line id="Line_36_2_" class="st8" x1="11.97" y1="22.52" x2="33.22" y2="22.52"/>
	<path id="Line_39_6_" class="st8" d="M22.2,39.56"/>
	<path id="Line_39_5_" class="st8" d="M11.97,39.56"/>
	<path id="Line_40_6_" class="st8" d="M18.99,45.18"/>
	<path id="Line_40_5_" class="st8" d="M11.97,45.18"/>
	<path id="Path_47_7_" class="st4" d="M59,40.32L59,40.32c-7.06,6.05-14.12,12.6-21.18,18.65l0,0c-3.53-3.53-6.55-7.56-10.08-11.09
		c1.51-1.51,3.03-2.52,4.54-4.03c2.02,2.02,4.03,4.54,6.05,6.55c5.55-5.04,11.09-9.58,16.64-14.62"/>
	<path id="Path_47_6_" class="st4" d="M59,38.94"/>
</g>
<g id="Risks_and_Mitigants" class="st0">
	<g class="st1">
		<g id="Group_61_1_">
			<path id="Path_48_1_" class="st11" d="M51.73,17.74h4.97v31.87H7.3V17.74h5.61"/>
			<line id="Line_25_1_" class="st11" x1="22.44" y1="54.39" x2="41.56" y2="54.39"/>
		</g>
		<g>
			<path class="st11" d="M47.84,25.13v-4.66h-3.45c-0.33-1.75-1.01-3.37-1.98-4.79l2.44-2.44l-3.29-3.29l-2.44,2.44
				c-1.41-0.97-3.04-1.65-4.79-1.98V6.97h-4.66v3.45c-1.75,0.33-3.37,1.01-4.79,1.98l-2.44-2.44l-3.29,3.29l2.44,2.44
				c-0.97,1.41-1.65,3.04-1.98,4.79h-3.45v4.66h3.45c0.33,1.75,1.01,3.37,1.98,4.79l-2.44,2.44l3.29,3.29l2.44-2.44
				c1.41,0.97,3.04,1.65,4.79,1.98v3.45h4.66V35.2c1.75-0.33,3.37-1.01,4.79-1.98l2.44,2.44l3.29-3.29l-2.44-2.44
				c0.97-1.41,1.65-3.04,1.98-4.79h3.45V25.13z"/>
			<path class="st11" d="M27.15,28.55h9.7c1.71,0,2.76-1.87,1.88-3.33l-4.85-8.04c-0.85-1.41-2.9-1.41-3.76,0l-4.85,8.04
				C24.39,26.68,25.44,28.55,27.15,28.55z"/>
			<g>
				<g>
					<polygon class="st9" points="32.4,24.72 31.6,24.72 31.21,19.93 32.79,19.93 					"/>
				</g>
				<rect x="32" y="25.2" class="st11" width="0" height="0.87"/>
			</g>
		</g>
	</g>
</g>
<g id="Interface" class="st0">
	<g class="st1">
		<g id="Group_61_2_">
			<path id="Path_48_2_" class="st11" d="M51.73,17.74h4.97v31.87H7.3V17.74h5.61"/>
			<line id="Line_25_2_" class="st11" x1="22.44" y1="54.39" x2="41.56" y2="54.39"/>
		</g>
		<g>
			<path class="st11" d="M44.38,25.13h3.45v-4.66h-3.45c-0.33-1.75-1.01-3.37-1.98-4.79l2.44-2.44l-3.29-3.29l-2.44,2.44
				c-1.41-0.97-3.04-1.65-4.79-1.98V6.97h-4.66v3.45c-1.75,0.33-3.37,1.01-4.79,1.98l-2.44-2.44l-3.29,3.29l2.44,2.44
				c-0.97,1.41-1.65,3.04-1.98,4.79h-3.45v4.66h3.45"/>
		</g>
	</g>
	<text transform="matrix(1 0 0 1 15.6875 43.5127)" class="st4 st12 st13">API</text>
	<path class="st8" d="M25.3,22.75c0-3.7,3-6.7,6.7-6.7s6.7,3,6.7,6.7"/>
</g>
<g id="Layer_19" class="st0">
	<g class="st1">
		<path class="st9" d="M32,50.62c-10.28,0-18.62-8.34-18.62-18.62S21.72,13.38,32,13.38S50.62,21.72,50.62,32h7.33
			C57.95,17.67,46.33,6.05,32,6.05S6.05,17.67,6.05,32S17.67,57.95,32,57.95V50.62z"/>
		<g>
			<path class="st9" d="M35.81,41.46c0-0.8,0.17-1.55,0.52-2.27s0.88-1.27,1.59-1.66s1.56-0.58,2.54-0.58c1.44,0,2.57,0.41,3.4,1.23
				s1.24,1.91,1.24,3.28c0,1.38-0.41,2.47-1.24,3.29s-1.96,1.23-3.4,1.23c-0.98,0-1.82-0.19-2.54-0.58s-1.25-0.94-1.59-1.66
				S35.81,42.27,35.81,41.46z M39.1,41.49c0,0.97,0.16,1.67,0.47,2.11c0.2,0.29,0.5,0.43,0.89,0.43s0.68-0.14,0.88-0.43
				c0.31-0.44,0.47-1.14,0.47-2.11c0-0.96-0.16-1.66-0.47-2.11c-0.2-0.28-0.49-0.42-0.88-0.42s-0.69,0.14-0.89,0.42
				C39.26,39.81,39.1,40.52,39.1,41.49z M50.4,36.95h2.48L42.95,55.3H40.5L50.4,36.95z M48.2,50.76c0-0.8,0.17-1.56,0.52-2.28
				s0.88-1.27,1.59-1.66s1.56-0.59,2.53-0.59c1.45,0,2.58,0.41,3.41,1.24s1.24,1.92,1.24,3.29s-0.41,2.46-1.24,3.29
				s-1.96,1.24-3.41,1.24c-0.97,0-1.81-0.2-2.53-0.59s-1.25-0.94-1.59-1.66S48.2,51.56,48.2,50.76z M51.49,50.78
				c0,0.97,0.16,1.67,0.47,2.11c0.2,0.28,0.49,0.42,0.88,0.42s0.69-0.14,0.89-0.42c0.31-0.44,0.47-1.14,0.47-2.11
				s-0.16-1.68-0.47-2.12c-0.2-0.28-0.5-0.42-0.89-0.42s-0.68,0.14-0.88,0.43C51.65,49.11,51.49,49.81,51.49,50.78z"/>
		</g>
	</g>
</g>
<g id="Eligibility" class="st0">
	<g class="st1">
		<g id="Group_830_8_" transform="translate(-156 -292)">
			<g id="Group_48_9_" transform="translate(163.5 297.648)">
				<g id="Group_47_9_">
					<path id="Path_42_9_" class="st11" d="M11.54,11.6c0.35-0.32,0.47-0.83,0.28-1.27V9.34c0-0.85-0.14-1.56-0.14-2.4
						c0.09-1.57,0.87-3.02,2.12-3.96c0.27-0.28,0.46-0.62,0.57-0.99c0.11-0.21,0.25-0.4,0.42-0.57C15.5,1,16.35,1.28,17.34,1.7
						c0.42,0.14,0.85,0.14,1.13,0.42c0.99,0.99,1.56,0.28,2.4,0.28c0.81-0.05,1.63,0.04,2.4,0.28C24.02,3,24.7,3.49,25.25,4.09
						c0.89,1.13,1.38,2.52,1.41,3.96c0.02,0.2-0.03,0.4-0.14,0.57c0,0.71-0.14,1.41-0.14,1.98V13c-0.08,0.6-0.27,1.17-0.57,1.7
						c-0.14,0.28-0.28,0.42-0.28,0.71v0.14c-0.58,2.31-1.93,4.35-3.82,5.8c-1.84,1.43-4.46,1.25-6.08-0.42
						c-1.71-1.45-2.86-3.45-3.25-5.66c-0.04-0.21-0.13-0.41-0.28-0.57c-0.48-0.86-0.73-1.84-0.71-2.83
						C11.48,11.81,11.53,11.71,11.54,11.6z"/>
					<g id="Group_46_9_">
						<path id="Path_43_10_" class="st11" d="M24.83,25.17c4.27,1.3,7.86,3.91,10.39,7.32"/>
						<path id="Path_44_9_" class="st11" d="M-1.18,44.69C-1.2,35.79,4.6,27.93,13.1,25.32"/>
						<g id="Group_45_9_">
							<line id="Line_21_9_" class="st11" x1="19.18" y1="34.51" x2="24.55" y2="25.17"/>
							<line id="Line_22_9_" class="st11" x1="19.04" y1="34.51" x2="13.66" y2="25.17"/>
						</g>
					</g>
				</g>
			</g>
		</g>
		<polyline class="st11" points="27.73,49.27 35.6,57.14 57.68,35.06 		"/>
	</g>
</g>
<g id="Layer_21" class="st0">
	<path id="Path_63_3_" class="st8" d="M44.05,47.92V55H6.96V7.58h37.09v13.25"/>
	<g id="Group_79_1_" transform="translate(7.666 4.341)" class="st1">
		<path id="Path_64_1_" class="st11" d="M30.03,42.41l-6.7,2.19l2.25-6.64L30.03,42.41z"/>
		
			<rect id="Rectangle_37_1_" x="26.99" y="28.54" transform="matrix(0.7071 -0.7071 0.7071 0.7071 -12.253 34.9798)" class="st14" width="18.22" height="7.49"/>
		
			<rect id="Rectangle_38_1_" x="43.2" y="19.14" transform="matrix(0.7071 -0.7071 0.7071 0.7071 -2.8378 38.9198)" class="st14" width="4.73" height="7.49"/>
	</g>
	<path id="Line_39_8_" class="st8" d="M22.2,39.56"/>
	<path id="Line_39_7_" class="st8" d="M11.97,39.56"/>
	<path id="Line_40_8_" class="st8" d="M18.99,45.18"/>
	<path id="Line_40_7_" class="st8" d="M11.97,45.18"/>
	<polyline class="st8" points="24.39,23.84 24.39,26.4 13.12,26.4 13.12,15.13 24.39,15.13 24.39,17.44 	"/>
	<path id="Path_47_5_" class="st4" d="M28,18.11L28,18.11c-2.17,1.86-4.33,3.87-6.5,5.73l0,0c-1.08-1.08-2.01-2.32-3.1-3.4
		c0.46-0.46,0.93-0.77,1.39-1.24c0.62,0.62,1.24,1.39,1.86,2.01c1.7-1.55,3.4-2.94,5.11-4.49v0.15C27.25,17.2,27.67,17.62,28,18.11
		C27.85,17.96,28,17.96,28,18.11z"/>
	<polyline class="st8" points="24.39,42.13 24.39,44.69 13.12,44.69 13.12,33.43 24.39,33.43 24.39,35.73 	"/>
	<path id="Path_47_8_" class="st4" d="M28,36.4L28,36.4c-2.17,1.86-4.33,3.87-6.5,5.73l0,0c-1.08-1.08-2.01-2.32-3.1-3.4
		c0.46-0.46,0.93-0.77,1.39-1.24c0.62,0.62,1.24,1.39,1.86,2.01c1.7-1.55,3.4-2.94,5.11-4.49v0.15C27.25,35.5,27.67,35.92,28,36.4
		C27.85,36.25,28,36.25,28,36.4z"/>
</g>
<g id="Quires" class="st0">
	<g class="st1">
		<polyline class="st11" points="16,19.2 6.14,19.2 6.14,48.55 23.75,48.55 32,56.8 40.25,48.55 57.86,48.55 57.86,19.2 48.92,19.2 
					"/>
		<text transform="matrix(1 0 0 1 17.675 41.1453)" class="st9 st15 st16">?</text>
	</g>
</g>
<g id="Convenants">
	<g>
		<g id="Group_60_1_">
			<g id="Group_49_2_">
				<g id="Path_45_2_">
					<polygon class="st9" points="56.61,36.91 47.96,36.91 47.96,27.42 49.96,27.42 49.96,34.91 56.61,34.91 					"/>
				</g>
			</g>
			<g id="Group_59_1_">
				<g id="Group_50_2_">
					<g id="Path_46_1_">
						<path class="st9" d="M57.48,59.17H32.8V26.56h16.71l0.43,0.43l4.03,4.35c3.5,3.89,3.81,4.24,3.51,4.94V59.17z M34.8,57.17
							h20.68V36.08c-0.31-0.42-1.28-1.49-3-3.4l-0.37-0.41l-3.44-3.71H34.8V57.17z"/>
					</g>
				</g>
				<g id="Group_58_1_">
					<g id="Path_47_9_">
						<path class="st9" d="M49.38,50.1L49.38,50.1c-1.95,1.67-3.9,3.48-5.84,5.15l0,0c-0.97-0.97-1.81-2.09-2.78-3.06
							c0.42-0.42,0.83-0.7,1.25-1.11c0.56,0.56,1.11,1.25,1.67,1.81c1.53-1.39,3.06-2.64,4.59-4.03V49
							C48.7,49.29,49.08,49.66,49.38,50.1C49.24,49.96,49.38,49.96,49.38,50.1z"/>
					</g>
				</g>
			</g>
		</g>
		<g id="Group_60_2_">
			<g id="Group_49_3_">
				<g id="Path_45_3_">
					<polygon class="st9" points="42.2,15.32 33.55,15.32 33.55,5.83 35.55,5.83 35.55,13.32 42.2,13.32 					"/>
				</g>
			</g>
			<g id="Group_59_2_">
				<g id="Group_50_3_">
					<g id="Path_46_5_">
						<path class="st9" d="M43.07,23.1h-2v-8.61c-0.31-0.42-1.28-1.5-3.01-3.42l-0.36-0.4l-3.44-3.71H20.39V23.1h-2V4.97H35.1
							l0.43,0.43l4.01,4.34c3.51,3.9,3.82,4.25,3.52,4.95V23.1z"/>
					</g>
				</g>
				<g id="Group_58_2_">
					<g id="Path_47_10_">
						<path class="st9" d="M34.52,19.32L34.52,19.32c-1.95,1.67-3.9,3.48-5.84,5.15l0,0c-0.97-0.97-1.81-2.09-2.78-3.06
							c0.42-0.42,0.83-0.7,1.25-1.11c0.56,0.56,1.11,1.25,1.67,1.81c1.53-1.39,3.06-2.64,4.59-4.03v0.14
							C33.84,18.51,34.22,18.89,34.52,19.32C34.38,19.18,34.52,19.18,34.52,19.32z"/>
					</g>
				</g>
			</g>
		</g>
		<g id="Group_60_3_">
			<g id="Group_49_4_">
				<g id="Path_45_4_">
					<polygon class="st9" points="30.2,36.91 21.55,36.91 21.55,27.42 23.55,27.42 23.55,34.91 30.2,34.91 					"/>
				</g>
			</g>
			<g id="Group_59_3_">
				<g id="Group_50_4_">
					<g id="Path_46_4_">
						<path class="st9" d="M31.07,59.17H6.39V26.56H23.1l0.43,0.43l4.04,4.36c3.49,3.88,3.8,4.23,3.5,4.92V59.17z M8.39,57.17h20.68
							V36.08c-0.31-0.42-1.28-1.49-2.98-3.39l-0.38-0.42l-3.44-3.71H8.39V57.17z"/>
					</g>
				</g>
				<g id="Group_58_3_">
					<g id="Path_47_11_">
						<path class="st9" d="M22.97,50.1L22.97,50.1c-1.95,1.67-3.9,3.48-5.84,5.15l0,0c-0.97-0.97-1.81-2.09-2.78-3.06
							c0.42-0.42,0.83-0.7,1.25-1.11c0.56,0.56,1.11,1.25,1.67,1.81c1.53-1.39,3.06-2.64,4.59-4.03V49
							C22.29,49.29,22.67,49.66,22.97,50.1C22.83,49.96,22.97,49.96,22.97,50.1z"/>
					</g>
				</g>
			</g>
		</g>
	</g>
</g>
<g id="check_list" class="st0">
	<g class="st1">
		<g>
			<polyline class="st11" points="23.87,19.83 23.87,23.75 6.65,23.75 6.65,6.53 23.87,6.53 23.87,10.05 			"/>
			<path id="Path_47_12_" class="st9" d="M29.39,11.08L29.39,11.08c-3.31,2.84-6.62,5.91-9.93,8.75l0,0
				c-1.66-1.66-3.07-3.55-4.73-5.2c0.71-0.71,1.42-1.18,2.13-1.89c0.95,0.95,1.89,2.13,2.84,3.07c2.6-2.37,5.2-4.49,7.8-6.86v0.24
				C28.24,9.69,28.88,10.33,29.39,11.08C29.15,10.84,29.39,10.84,29.39,11.08z"/>
		</g>
		<g>
			<polyline class="st11" points="23.87,53.55 23.87,57.47 6.65,57.47 6.65,40.25 23.87,40.25 23.87,43.77 			"/>
			<path id="Path_47_13_" class="st9" d="M29.39,44.8L29.39,44.8c-3.31,2.84-6.62,5.91-9.93,8.75l0,0c-1.66-1.66-3.07-3.55-4.73-5.2
				c0.71-0.71,1.42-1.18,2.13-1.89c0.95,0.95,1.89,2.13,2.84,3.07c2.6-2.37,5.2-4.49,7.8-6.86v0.24
				C28.24,43.41,28.88,44.05,29.39,44.8C29.15,44.56,29.39,44.56,29.39,44.8z"/>
		</g>
		<polygon class="st11" points="57.35,10.08 36.64,10.08 36.64,10.08 		"/>
		<polygon class="st11" points="57.35,15.52 36.64,15.52 36.64,15.52 		"/>
		<polygon class="st11" points="56.98,20.96 36.28,20.96 36.28,20.96 		"/>
		<polygon class="st11" points="57.35,43.42 36.64,43.42 36.64,43.42 		"/>
		<polygon class="st11" points="57.35,48.86 36.64,48.86 36.64,48.86 		"/>
		<polygon class="st11" points="56.98,54.3 36.28,54.3 36.28,54.3 		"/>
	</g>
</g>
<g id="other" class="st0">
	<g class="st1">
		<rect x="5.83" y="5.83" class="st11" width="52.34" height="52.34"/>
		<g>
			<circle class="st9" cx="16.06" cy="32" r="5.26"/>
			<circle class="st9" cx="32" cy="32" r="5.26"/>
			<circle class="st9" cx="47.94" cy="32" r="5.26"/>
		</g>
	</g>
</g>
<g id="Layer_8" class="st0">
	<g id="Group_48_1_" transform="translate(163.5 297.648)" class="st1">
		<g id="Group_47_1_">
			<path id="Path_42_1_" class="st11" d="M-140.09-278.65c0.41-0.37,0.54-0.95,0.32-1.46v-1.13c0-0.97-0.16-1.78-0.16-2.75
				c0.1-1.8,0.99-3.46,2.43-4.54c0.31-0.32,0.53-0.71,0.65-1.13c0.12-0.24,0.29-0.46,0.49-0.65c0.81-0.49,1.78-0.16,2.92,0.32
				c0.49,0.16,0.97,0.16,1.3,0.49c1.13,1.13,1.78,0.32,2.75,0.32c0.93-0.06,1.86,0.05,2.75,0.32c0.86,0.37,1.64,0.92,2.27,1.62
				c1.02,1.3,1.58,2.89,1.62,4.54c0.02,0.23-0.03,0.46-0.16,0.65c0,0.81-0.16,1.62-0.16,2.27v2.75c-0.09,0.68-0.31,1.34-0.65,1.94
				c-0.16,0.32-0.32,0.49-0.32,0.81v0.16c-0.67,2.64-2.21,4.99-4.37,6.64c-2.11,1.64-5.11,1.43-6.97-0.49
				c-1.96-1.66-3.28-3.95-3.73-6.48c-0.04-0.24-0.15-0.47-0.32-0.65c-0.55-0.99-0.83-2.11-0.81-3.24
				C-140.16-278.41-140.1-278.53-140.09-278.65z"/>
			<g id="Group_46_1_">
				<path id="Path_43_1_" class="st11" d="M-124.86-263.1c9.77,2.98,16.47,11.98,16.52,22.19"/>
				<path id="Path_44_1_" class="st11" d="M-154.67-240.74c-0.01-10.19,6.62-19.19,16.36-22.19"/>
				<g id="Group_45_1_">
					<line id="Line_21_1_" class="st11" x1="-131.34" y1="-252.41" x2="-125.18" y2="-263.1"/>
					<line id="Line_22_1_" class="st11" x1="-131.5" y1="-252.41" x2="-137.66" y2="-263.1"/>
				</g>
			</g>
		</g>
		<line id="Line_23_1_" class="st11" x1="-144.46" y1="-240.74" x2="-144.46" y2="-249.98"/>
		<line id="Line_24_1_" class="st11" x1="-118.54" y1="-240.74" x2="-118.54" y2="-249.98"/>
	</g>
</g>
</svg>
