<svg id="Customer_View" data-name="Customer View" xmlns="http://www.w3.org/2000/svg" xmlns:xlink="http://www.w3.org/1999/xlink" viewBox="0 0 64 64"><defs><style>.cls-1,.cls-55{fill:none;}.cls-2{clip-path:url(#clip-path);}.cls-3{fill:#fff;}.cls-4{fill:#fefefe;}.cls-5{fill:#fdfdfd;}.cls-6{fill:#fcfcfc;}.cls-7{fill:#fbfbfb;}.cls-8{fill:#fafafa;}.cls-9{fill:#f9f9f9;}.cls-10{fill:#f8f8f8;}.cls-11{fill:#f7f7f7;}.cls-12{fill:#f6f6f6;}.cls-13{fill:#f5f5f5;}.cls-14{fill:#f4f4f4;}.cls-15{fill:#f3f3f3;}.cls-16{fill:#f2f2f2;}.cls-17{fill:#f1f1f1;}.cls-18{fill:#f0f0f0;}.cls-19{fill:#efefef;}.cls-20{fill:#eee;}.cls-21{fill:#ededed;}.cls-22{fill:#ececec;}.cls-23{fill:#ebebeb;}.cls-24{fill:#eaeaea;}.cls-25{fill:#e9e9e9;}.cls-26{fill:#e8e8e8;}.cls-27{fill:#e7e7e7;}.cls-28{fill:#e5e5e5;}.cls-29{fill:#e4e4e4;}.cls-30{fill:#e3e3e3;}.cls-31{fill:#e2e2e2;}.cls-32{fill:#e1e1e1;}.cls-33{fill:#e0e0e0;}.cls-34{fill:#dfdfdf;}.cls-35{fill:#dedede;}.cls-36{fill:#ddd;}.cls-37{fill:#dcdcdc;}.cls-38{fill:#dbdbdb;}.cls-39{fill:#dadada;}.cls-40{fill:#d9d9d9;}.cls-41{fill:#d8d8d8;}.cls-42{fill:#d7d7d7;}.cls-43{fill:#d6d6d6;}.cls-44{fill:#d5d5d5;}.cls-45{fill:#d4d4d4;}.cls-46{fill:#d3d3d3;}.cls-47{fill:#d2d2d2;}.cls-48{fill:#d1d1d1;}.cls-49{fill:#d0d0d0;}.cls-50{fill:#cfcfcf;}.cls-51{fill:#cecece;}.cls-52{fill:#cdcdcd;}.cls-53{fill:#ccc;}.cls-54{fill:#365b85;}.cls-55{stroke:#365b85;stroke-miterlimit:10;stroke-width:2px;}</style><clipPath id="clip-path"><rect class="cls-1" x="6.72" y="7.3" width="50.55" height="49.4" rx="6.89"/></clipPath></defs><title>Artboard 1</title><g id="Rectangle_793" data-name="Rectangle 793"><g class="cls-2"><rect class="cls-3" x="6.72" y="7.3" width="50.55" height="0.97"/><rect class="cls-4" x="6.72" y="8.27" width="50.55" height="0.97"/><rect class="cls-5" x="6.72" y="9.24" width="50.55" height="0.97"/><rect class="cls-6" x="6.72" y="10.2" width="50.55" height="0.97"/><rect class="cls-7" x="6.72" y="11.17" width="50.55" height="0.97"/><rect class="cls-8" x="6.72" y="12.14" width="50.55" height="0.97"/><rect class="cls-9" x="6.72" y="13.11" width="50.55" height="0.97"/><rect class="cls-10" x="6.72" y="14.08" width="50.55" height="0.97"/><rect class="cls-11" x="6.72" y="15.05" width="50.55" height="0.97"/><rect class="cls-12" x="6.72" y="16.02" width="50.55" height="0.97"/><rect class="cls-13" x="6.72" y="16.98" width="50.55" height="0.97"/><rect class="cls-14" x="6.72" y="17.95" width="50.55" height="0.97"/><rect class="cls-15" x="6.72" y="18.92" width="50.55" height="0.97"/><rect class="cls-16" x="6.72" y="19.89" width="50.55" height="0.97"/><rect class="cls-17" x="6.72" y="20.86" width="50.55" height="0.97"/><rect class="cls-18" x="6.72" y="21.83" width="50.55" height="0.97"/><rect class="cls-19" x="6.72" y="22.8" width="50.55" height="0.97"/><rect class="cls-20" x="6.72" y="23.77" width="50.55" height="0.97"/><rect class="cls-21" x="6.72" y="24.73" width="50.55" height="0.97"/><rect class="cls-22" x="6.72" y="25.7" width="50.55" height="0.97"/><rect class="cls-23" x="6.72" y="26.67" width="50.55" height="0.97"/><rect class="cls-24" x="6.72" y="27.64" width="50.55" height="0.97"/><rect class="cls-25" x="6.72" y="28.61" width="50.55" height="0.97"/><rect class="cls-26" x="6.72" y="29.58" width="50.55" height="0.97"/><rect class="cls-27" x="6.72" y="30.55" width="50.55" height="0.97"/><rect class="cls-28" x="6.72" y="31.52" width="50.55" height="0.97"/><rect class="cls-29" x="6.72" y="32.48" width="50.55" height="0.97"/><rect class="cls-30" x="6.72" y="33.45" width="50.55" height="0.97"/><rect class="cls-31" x="6.72" y="34.42" width="50.55" height="0.97"/><rect class="cls-32" x="6.72" y="35.39" width="50.55" height="0.97"/><rect class="cls-33" x="6.72" y="36.36" width="50.55" height="0.97"/><rect class="cls-34" x="6.72" y="37.33" width="50.55" height="0.97"/><rect class="cls-35" x="6.72" y="38.3" width="50.55" height="0.97"/><rect class="cls-36" x="6.72" y="39.27" width="50.55" height="0.97"/><rect class="cls-37" x="6.72" y="40.23" width="50.55" height="0.97"/><rect class="cls-38" x="6.72" y="41.2" width="50.55" height="0.97"/><rect class="cls-39" x="6.72" y="42.17" width="50.55" height="0.97"/><rect class="cls-40" x="6.72" y="43.14" width="50.55" height="0.97"/><rect class="cls-41" x="6.72" y="44.11" width="50.55" height="0.97"/><rect class="cls-42" x="6.72" y="45.08" width="50.55" height="0.97"/><rect class="cls-43" x="6.72" y="46.05" width="50.55" height="0.97"/><rect class="cls-44" x="6.72" y="47.01" width="50.55" height="0.97"/><rect class="cls-45" x="6.72" y="47.98" width="50.55" height="0.97"/><rect class="cls-46" x="6.72" y="48.95" width="50.55" height="0.97"/><rect class="cls-47" x="6.72" y="49.92" width="50.55" height="0.97"/><rect class="cls-48" x="6.72" y="50.89" width="50.55" height="0.97"/><rect class="cls-49" x="6.72" y="51.86" width="50.55" height="0.97"/><rect class="cls-50" x="6.72" y="52.83" width="50.55" height="0.97"/><rect class="cls-51" x="6.72" y="53.8" width="50.55" height="0.97"/><rect class="cls-52" x="6.72" y="54.76" width="50.55" height="0.97"/><rect class="cls-53" x="6.72" y="55.73" width="50.55" height="0.97"/></g></g><g id="Rectangle_793-2" data-name="Rectangle 793"><rect class="cls-1" x="6.72" y="7.3" width="50.55" height="49.4" rx="6.89"/><path class="cls-54" d="M50.38,57.13H13.62A7.33,7.33,0,0,1,6.3,49.81V14.19a7.33,7.33,0,0,1,7.32-7.32H50.38a7.33,7.33,0,0,1,7.32,7.32V49.81A7.33,7.33,0,0,1,50.38,57.13ZM13.62,8.87A5.32,5.32,0,0,0,8.3,14.19V49.81a5.32,5.32,0,0,0,5.32,5.32H50.38a5.32,5.32,0,0,0,5.32-5.32V14.19a5.32,5.32,0,0,0-5.32-5.32Z"/></g><g id="Group_48" data-name="Group 48"><g id="Group_47" data-name="Group 47"><path id="Path_42" data-name="Path 42" class="cls-55" d="M25.91,22.78a.92.92,0,0,0,.23-1v-.8c0-.69-.11-1.26-.11-2a4.32,4.32,0,0,1,1.72-3.22,1.79,1.79,0,0,0,.46-.8,1.41,1.41,0,0,1,.34-.46c.58-.35,1.27-.12,2.07.23.35.11.69.11.92.34.8.81,1.26.23,2,.23a5.41,5.41,0,0,1,2,.23,4.71,4.71,0,0,1,1.61,1.15,5.37,5.37,0,0,1,1.14,3.22.69.69,0,0,1-.11.46c0,.57-.12,1.15-.12,1.6v2a3.82,3.82,0,0,1-.46,1.38c-.11.23-.22.34-.22.57V26a8.63,8.63,0,0,1-3.11,4.71,3.71,3.71,0,0,1-4.94-.35,7.79,7.79,0,0,1-2.64-4.59.84.84,0,0,0-.23-.46A4.51,4.51,0,0,1,25.8,23,.38.38,0,0,0,25.91,22.78Z"/><g id="Group_46" data-name="Group 46"><path id="Path_43" data-name="Path 43" class="cls-55" d="M36.71,33.81A16.55,16.55,0,0,1,48.43,49.55"/><path id="Path_44" data-name="Path 44" class="cls-55" d="M15.57,49.66a16.46,16.46,0,0,1,11.6-15.74"/><g id="Group_45" data-name="Group 45"><line id="Line_21" data-name="Line 21" class="cls-55" x1="32.11" y1="41.39" x2="36.48" y2="33.81"/><line id="Line_22" data-name="Line 22" class="cls-55" x1="32" y1="41.39" x2="27.63" y2="33.81"/></g></g></g><line id="Line_23" data-name="Line 23" class="cls-55" x1="22.81" y1="49.66" x2="22.81" y2="43.12"/><line id="Line_24" data-name="Line 24" class="cls-55" x1="41.19" y1="49.66" x2="41.19" y2="43.12"/></g></svg>