<svg xmlns="http://www.w3.org/2000/svg" xmlns:xlink="http://www.w3.org/1999/xlink" viewBox="0 0 64 64"><defs><style>.cls-1{fill:none;}.cls-2{fill:#fff;}.cls-3{clip-path:url(#clip-path);}.cls-4{fill:#fefefe;}.cls-5{fill:#fdfdfd;}.cls-6{fill:#fcfcfc;}.cls-7{fill:#fbfbfb;}.cls-8{fill:#fafafa;}.cls-9{fill:#f9f9f9;}.cls-10{fill:#f8f8f8;}.cls-11{fill:#f7f7f7;}.cls-12{fill:#f6f6f6;}.cls-13{fill:#f5f5f5;}.cls-14{fill:#f4f4f4;}.cls-15{fill:#f3f3f3;}.cls-16{fill:#f2f2f2;}.cls-17{fill:#f1f1f1;}.cls-18{fill:#f0f0f0;}.cls-19{fill:#efefef;}.cls-20{fill:#eee;}.cls-21{fill:#ededed;}.cls-22{fill:#ececec;}.cls-23{fill:#ebebeb;}.cls-24{fill:#eaeaea;}.cls-25{fill:#e9e9e9;}.cls-26{fill:#e8e8e8;}.cls-27{fill:#e7e7e7;}.cls-28{fill:#e5e5e5;}.cls-29{fill:#e4e4e4;}.cls-30{fill:#e3e3e3;}.cls-31{fill:#e2e2e2;}.cls-32{fill:#e1e1e1;}.cls-33{fill:#e0e0e0;}.cls-34{fill:#dfdfdf;}.cls-35{fill:#dedede;}.cls-36{fill:#ddd;}.cls-37{fill:#dcdcdc;}.cls-38{fill:#dbdbdb;}.cls-39{fill:#dadada;}.cls-40{fill:#d9d9d9;}.cls-41{fill:#d8d8d8;}.cls-42{fill:#d7d7d7;}.cls-43{fill:#d6d6d6;}.cls-44{fill:#d5d5d5;}.cls-45{fill:#d4d4d4;}.cls-46{fill:#d3d3d3;}.cls-47{fill:#d2d2d2;}.cls-48{fill:#d1d1d1;}.cls-49{fill:#d0d0d0;}.cls-50{fill:#cfcfcf;}.cls-51{fill:#cecece;}.cls-52{fill:#cdcdcd;}.cls-53{fill:#ccc;}.cls-54{fill:#365b85;}</style><clipPath id="clip-path"><rect class="cls-1" x="6.72" y="7.3" width="50.55" height="49.4" rx="6.89"/></clipPath></defs><title>Customer Details</title><g id="BG"><rect class="cls-2" width="64" height="64"/></g><g id="Customer_Details" data-name="Customer Details"><g id="Rectangle_793" data-name="Rectangle 793"><g class="cls-3"><path class="cls-2" d="M57.28,7.3h0Z"/><rect class="cls-2" x="6.72" y="7.3" width="50.55" height="0.97"/><rect class="cls-4" x="6.72" y="8.27" width="50.55" height="0.97"/><rect class="cls-5" x="6.72" y="9.24" width="50.55" height="0.97"/><rect class="cls-6" x="6.72" y="10.2" width="50.55" height="0.97"/><rect class="cls-7" x="6.72" y="11.17" width="50.55" height="0.97"/><rect class="cls-8" x="6.72" y="12.14" width="50.55" height="0.97"/><rect class="cls-9" x="6.72" y="13.11" width="50.55" height="0.97"/><rect class="cls-10" x="6.72" y="14.08" width="50.55" height="0.97"/><rect class="cls-11" x="6.72" y="15.05" width="50.55" height="0.97"/><rect class="cls-12" x="6.72" y="16.02" width="50.55" height="0.97"/><rect class="cls-13" x="6.72" y="16.98" width="50.55" height="0.97"/><rect class="cls-14" x="6.72" y="17.95" width="50.55" height="0.97"/><rect class="cls-15" x="6.72" y="18.92" width="50.55" height="0.97"/><rect class="cls-16" x="6.72" y="19.89" width="50.55" height="0.97"/><rect class="cls-17" x="6.72" y="20.86" width="50.55" height="0.97"/><rect class="cls-18" x="6.72" y="21.83" width="50.55" height="0.97"/><rect class="cls-19" x="6.72" y="22.8" width="50.55" height="0.97"/><rect class="cls-20" x="6.72" y="23.77" width="50.55" height="0.97"/><rect class="cls-21" x="6.72" y="24.73" width="50.55" height="0.97"/><rect class="cls-22" x="6.72" y="25.7" width="50.55" height="0.97"/><rect class="cls-23" x="6.72" y="26.67" width="50.55" height="0.97"/><rect class="cls-24" x="6.72" y="27.64" width="50.55" height="0.97"/><rect class="cls-25" x="6.72" y="28.61" width="50.55" height="0.97"/><rect class="cls-26" x="6.72" y="29.58" width="50.55" height="0.97"/><rect class="cls-27" x="6.72" y="30.55" width="50.55" height="0.97"/><rect class="cls-28" x="6.72" y="31.52" width="50.55" height="0.97"/><rect class="cls-29" x="6.72" y="32.48" width="50.55" height="0.97"/><rect class="cls-30" x="6.72" y="33.45" width="50.55" height="0.97"/><rect class="cls-31" x="6.72" y="34.42" width="50.55" height="0.97"/><rect class="cls-32" x="6.72" y="35.39" width="50.55" height="0.97"/><rect class="cls-33" x="6.72" y="36.36" width="50.55" height="0.97"/><rect class="cls-34" x="6.72" y="37.33" width="50.55" height="0.97"/><rect class="cls-35" x="6.72" y="38.3" width="50.55" height="0.97"/><rect class="cls-36" x="6.72" y="39.27" width="50.55" height="0.97"/><rect class="cls-37" x="6.72" y="40.23" width="50.55" height="0.97"/><rect class="cls-38" x="6.72" y="41.2" width="50.55" height="0.97"/><rect class="cls-39" x="6.72" y="42.17" width="50.55" height="0.97"/><rect class="cls-40" x="6.72" y="43.14" width="50.55" height="0.97"/><rect class="cls-41" x="6.72" y="44.11" width="50.55" height="0.97"/><rect class="cls-42" x="6.72" y="45.08" width="50.55" height="0.97"/><rect class="cls-43" x="6.72" y="46.05" width="50.55" height="0.97"/><rect class="cls-44" x="6.72" y="47.02" width="50.55" height="0.97"/><rect class="cls-45" x="6.72" y="47.98" width="50.55" height="0.97"/><rect class="cls-46" x="6.72" y="48.95" width="50.55" height="0.97"/><rect class="cls-47" x="6.72" y="49.92" width="50.55" height="0.97"/><rect class="cls-48" x="6.72" y="50.89" width="50.55" height="0.97"/><rect class="cls-49" x="6.72" y="51.86" width="50.55" height="0.97"/><rect class="cls-50" x="6.72" y="52.83" width="50.55" height="0.97"/><rect class="cls-51" x="6.72" y="53.8" width="50.55" height="0.97"/><rect class="cls-52" x="6.72" y="54.76" width="50.55" height="0.97"/><rect class="cls-53" x="6.72" y="55.73" width="50.55" height="0.97"/><path class="cls-53" d="M6.72,56.7h0Z"/></g></g><g id="Rectangle_793-2" data-name="Rectangle 793"><rect class="cls-1" x="6.72" y="7.3" width="50.55" height="49.4" rx="6.89"/><path class="cls-54" d="M50.38,57.13H13.62A7.33,7.33,0,0,1,6.3,49.81V14.19a7.33,7.33,0,0,1,7.32-7.32H50.38a7.33,7.33,0,0,1,7.32,7.32V49.81A7.33,7.33,0,0,1,50.38,57.13ZM13.62,8.87A5.32,5.32,0,0,0,8.3,14.19V49.81a5.32,5.32,0,0,0,5.32,5.32H50.38a5.32,5.32,0,0,0,5.32-5.32V14.19a5.32,5.32,0,0,0-5.32-5.32Z"/></g><g id="Group_830" data-name="Group 830"><g id="Group_48" data-name="Group 48"><g id="Group_47" data-name="Group 47"><g id="Path_42" data-name="Path 42"><path class="cls-54" d="M32.15,37a4.16,4.16,0,0,1-3-1.27,7.67,7.67,0,0,1-2.53-4.4l-.09-.14a4.81,4.81,0,0,1-.62-2.48v-.44l.12-.1v-.12l.17-.16,0-.05V27c0-.26,0-.5,0-.74a9.28,9.28,0,0,1-.06-.93,4.77,4.77,0,0,1,1.8-3.5.61.61,0,0,0,.11-.21l.07-.19a2.58,2.58,0,0,1,.51-.68l.17-.12a2.89,2.89,0,0,1,2.68.13l.1,0a1.89,1.89,0,0,1,1,.49.5.5,0,0,0,.11.09s0,0,.09-.06a2.84,2.84,0,0,1,.77-.13,5.45,5.45,0,0,1,2,.25l.1,0a5,5,0,0,1,1.72,1.23A5.7,5.7,0,0,1,38.55,26a1.48,1.48,0,0,1-.1.67l-.06.62a5,5,0,0,0,0,.51v1.81a4.24,4.24,0,0,1-.51,1.54l-.07.12,0,.22a8.38,8.38,0,0,1-3,4.59A4.16,4.16,0,0,1,32.15,37Zm-3.92-6.87a1.66,1.66,0,0,1,.35.8,5.74,5.74,0,0,0,1.93,3.34,2.23,2.23,0,0,0,3,.27,6.42,6.42,0,0,0,2.28-3.4,1.55,1.55,0,0,1,.25-.8l0-.09a2.27,2.27,0,0,0,.29-.81v-1.6c0-.22,0-.46,0-.72a4.77,4.77,0,0,0,.05-.66v-.31l.1-.14a3.75,3.75,0,0,0-.77-2.09,3.16,3.16,0,0,0-.94-.66,3.6,3.6,0,0,0-1.26-.14.94.94,0,0,0-.3.06,2,2,0,0,1-2.08-.48l-.11,0-.36-.1a3.55,3.55,0,0,0-.85-.29,2.75,2.75,0,0,1-.58.93l-.12.1a2.71,2.71,0,0,0-1.08,2c0,.21,0,.45,0,.69s.05.61.05.93v.53A1.81,1.81,0,0,1,27.91,29,2.94,2.94,0,0,0,28.23,30.13Zm-1.62,1.14Zm9.94-5.16a.13.13,0,0,0,0,.06A.13.13,0,0,1,36.55,26.11Z"/></g><g id="Group_46" data-name="Group 46"><g id="Path_43" data-name="Path 43"><path class="cls-54" d="M45.32,51.49A13.11,13.11,0,0,0,36,39L36.56,37A15.12,15.12,0,0,1,47.32,51.48Z"/></g><g id="Path_44" data-name="Path 44"><path class="cls-54" d="M17.14,51.59A15,15,0,0,1,27.79,37.13L28.38,39a13,13,0,0,0-9.24,12.55Z"/></g><g id="Group_45" data-name="Group 45"><g id="Line_21" data-name="Line 21"><rect class="cls-54" x="30.45" y="40.24" width="7.5" height="2" transform="translate(-18.61 50.3) rotate(-60.07)"/></g><g id="Line_22" data-name="Line 22"><rect class="cls-54" x="29.36" y="37.49" width="2" height="7.5" transform="translate(-16.53 20.65) rotate(-29.93)"/></g></g></g></g><g id="Line_23" data-name="Line 23"><rect class="cls-54" x="23.35" y="45.97" width="2" height="5.62"/></g><g id="Line_24" data-name="Line 24"><rect class="cls-54" x="39.11" y="45.97" width="2" height="5.62"/></g></g></g><g id="Group_830-2" data-name="Group 830"><g id="Group_48-2" data-name="Group 48"><g id="Group_47-2" data-name="Group 47"><g id="Path_42-2" data-name="Path 42"><path class="cls-54" d="M46.19,27.08A3.54,3.54,0,0,1,43.63,26a6.24,6.24,0,0,1-2.08-3.59l-.07-.12a4.15,4.15,0,0,1-.53-2.1v-.43l.11-.1v-.09l.12-.1v-.69c0-.21,0-.4,0-.59a6.23,6.23,0,0,1,0-.77,4.06,4.06,0,0,1,1.51-3,.19.19,0,0,0,0-.09l.07-.18a2.09,2.09,0,0,1,.46-.61l.16-.12a2.51,2.51,0,0,1,2.34.1s0,0,.05,0a1.73,1.73,0,0,1,.88.43h0a2.21,2.21,0,0,1,.67-.11,4.58,4.58,0,0,1,1.65.2l.1,0a4.2,4.2,0,0,1,1.46,1,4.83,4.83,0,0,1,1,2.88,1.36,1.36,0,0,1-.08.58c0,.17,0,.33,0,.48s0,.28,0,.4V21A3.68,3.68,0,0,1,51,22.28l0,.07,0,.17a7,7,0,0,1-2.52,3.81A3.54,3.54,0,0,1,46.19,27.08Zm-3-5.85a1.62,1.62,0,0,1,.32.72A4.32,4.32,0,0,0,45,24.53a1.6,1.6,0,0,0,2.16.22,5,5,0,0,0,1.77-2.63,1.55,1.55,0,0,1,.23-.71l.05-.11a1.39,1.39,0,0,0,.19-.54V19.49a4.55,4.55,0,0,1,0-.61c0-.16,0-.34,0-.51v-.31l.08-.11A2.79,2.79,0,0,0,49,16.44a2.09,2.09,0,0,0-.68-.47,2.67,2.67,0,0,0-.93-.11,1,1,0,0,0-.2,0,1.78,1.78,0,0,1-1.83-.39h0L45,15.42a4.81,4.81,0,0,0-.51-.2,2.15,2.15,0,0,1-.45.66l-.11.1a2,2,0,0,0-.8,1.49c0,.15,0,.34,0,.53s0,.5,0,.77v.4A1.64,1.64,0,0,1,43,20.48,2.41,2.41,0,0,0,43.18,21.23Zm-1.65,1.06Zm8-4.2v0Z"/></g><g id="Group_46-2" data-name="Group 46"><g id="Path_43-2" data-name="Path 43"><path class="cls-54" d="M51.75,29.79a10.81,10.81,0,0,0-2.52-1.15l.58-1.91a12.16,12.16,0,0,1,3,1.37Z"/></g><g id="Path_44-2" data-name="Path 44"><path class="cls-54" d="M40.59,29.94,39.5,28.27a10.8,10.8,0,0,1,1.56-.86,10.48,10.48,0,0,1,1.56-.6l.58,1.91a12,12,0,0,0-1.3.5A11.12,11.12,0,0,0,40.59,29.94Z"/></g><g id="Group_45-2" data-name="Group 45"><g id="Line_21-2" data-name="Line 21"><rect class="cls-54" x="44.81" y="29.32" width="6.06" height="2" transform="translate(-2.31 56.64) rotate(-60.05)"/></g><g id="Line_22-2" data-name="Line 22"><rect class="cls-54" x="43.74" y="27.28" width="2" height="6.06" transform="translate(-9.16 26.36) rotate(-29.93)"/></g></g></g></g></g></g><g id="Group_830-3" data-name="Group 830"><g id="Group_48-3" data-name="Group 48"><g id="Group_47-3" data-name="Group 47"><g id="Path_42-3" data-name="Path 42"><path class="cls-54" d="M18.91,27.08A3.57,3.57,0,0,1,16.34,26a6.29,6.29,0,0,1-2.08-3.59l-.07-.12a4.14,4.14,0,0,1-.52-2.1v-.43l.1-.09v-.1l.12-.1v-.69a5.47,5.47,0,0,0,0-.59c0-.25,0-.49,0-.77a4,4,0,0,1,1.5-3,.19.19,0,0,0,.05-.09l.07-.18a1.89,1.89,0,0,1,.45-.6l.17-.13a2.51,2.51,0,0,1,2.34.1s0,0,.05,0a1.7,1.7,0,0,1,.87.43h0a2.27,2.27,0,0,1,.67-.11,4.53,4.53,0,0,1,1.65.2l.1,0a4.2,4.2,0,0,1,1.46,1A4.78,4.78,0,0,1,24.27,18a1.23,1.23,0,0,1-.09.58c0,.17,0,.33,0,.48s0,.28,0,.4V21a3.57,3.57,0,0,1-.44,1.31s0,0,0,.07l0,.17a7,7,0,0,1-2.51,3.81A3.58,3.58,0,0,1,18.91,27.08Zm-3-5.85a1.6,1.6,0,0,1,.31.72,4.42,4.42,0,0,0,1.49,2.58,1.61,1.61,0,0,0,2.17.22,5,5,0,0,0,1.77-2.63,1.58,1.58,0,0,1,.22-.71l.06-.1a1.8,1.8,0,0,0,.19-.55V19.49c0-.19,0-.39,0-.61a4.21,4.21,0,0,0,0-.51v-.31l.07-.11a2.87,2.87,0,0,0-.57-1.51A2.34,2.34,0,0,0,21,16a2.7,2.7,0,0,0-.94-.11,1.13,1.13,0,0,0-.2,0A1.78,1.78,0,0,1,18,15.51h0l-.31-.08a4.81,4.81,0,0,0-.51-.2,2.15,2.15,0,0,1-.45.66l-.12.1a2,2,0,0,0-.79,1.49c0,.15,0,.34,0,.53a6.36,6.36,0,0,1,.05.77v.4a1.64,1.64,0,0,1-.23,1.31A2.17,2.17,0,0,0,15.9,21.23Zm-1.66,1.06Zm8-4.2v0Z"/></g><g id="Group_46-3" data-name="Group 46"><g id="Path_43-3" data-name="Path 43"><path class="cls-54" d="M24,29.51a10.88,10.88,0,0,0-2-.87l.59-1.91a12.7,12.7,0,0,1,2.43,1Z"/></g><g id="Path_44-3" data-name="Path 44"><path class="cls-54" d="M13.16,30,12,28.39a12.18,12.18,0,0,1,3.29-1.58l.59,1.91A10.48,10.48,0,0,0,13.16,30Z"/></g><g id="Group_45-3" data-name="Group 45"><g id="Line_21-3" data-name="Line 21"><rect class="cls-54" x="17.53" y="29.31" width="6.06" height="2" transform="translate(-15.97 33.01) rotate(-60.07)"/></g><g id="Line_22-3" data-name="Line 22"><rect class="cls-54" x="16.46" y="27.28" width="2" height="6.06" transform="translate(-12.8 12.76) rotate(-29.94)"/></g></g></g></g></g></g></g></svg>