<svg id="Customer_summary" data-name="Customer summary" xmlns="http://www.w3.org/2000/svg" xmlns:xlink="http://www.w3.org/1999/xlink" viewBox="0 0 64 64"><defs><style>.cls-1,.cls-55{fill:none;}.cls-2{clip-path:url(#clip-path);}.cls-3{fill:#fff;}.cls-4{fill:#fefefe;}.cls-5{fill:#fdfdfd;}.cls-6{fill:#fcfcfc;}.cls-7{fill:#fbfbfb;}.cls-8{fill:#fafafa;}.cls-9{fill:#f9f9f9;}.cls-10{fill:#f8f8f8;}.cls-11{fill:#f7f7f7;}.cls-12{fill:#f6f6f6;}.cls-13{fill:#f5f5f5;}.cls-14{fill:#f4f4f4;}.cls-15{fill:#f3f3f3;}.cls-16{fill:#f2f2f2;}.cls-17{fill:#f1f1f1;}.cls-18{fill:#f0f0f0;}.cls-19{fill:#efefef;}.cls-20{fill:#eee;}.cls-21{fill:#ededed;}.cls-22{fill:#ececec;}.cls-23{fill:#ebebeb;}.cls-24{fill:#eaeaea;}.cls-25{fill:#e9e9e9;}.cls-26{fill:#e8e8e8;}.cls-27{fill:#e7e7e7;}.cls-28{fill:#e5e5e5;}.cls-29{fill:#e4e4e4;}.cls-30{fill:#e3e3e3;}.cls-31{fill:#e2e2e2;}.cls-32{fill:#e1e1e1;}.cls-33{fill:#e0e0e0;}.cls-34{fill:#dfdfdf;}.cls-35{fill:#dedede;}.cls-36{fill:#ddd;}.cls-37{fill:#dcdcdc;}.cls-38{fill:#dbdbdb;}.cls-39{fill:#dadada;}.cls-40{fill:#d9d9d9;}.cls-41{fill:#d8d8d8;}.cls-42{fill:#d7d7d7;}.cls-43{fill:#d6d6d6;}.cls-44{fill:#d5d5d5;}.cls-45{fill:#d4d4d4;}.cls-46{fill:#d3d3d3;}.cls-47{fill:#d2d2d2;}.cls-48{fill:#d1d1d1;}.cls-49{fill:#d0d0d0;}.cls-50{fill:#cfcfcf;}.cls-51{fill:#cecece;}.cls-52{fill:#cdcdcd;}.cls-53{fill:#ccc;}.cls-54{fill:#365b85;}.cls-55{stroke:#365b85;stroke-miterlimit:10;stroke-width:2px;}</style><clipPath id="clip-path"><rect class="cls-1" x="7.31" y="7.8" width="50.55" height="49.4" rx="6.89"/></clipPath></defs><title>Artboard 1</title><g id="Rectangle_793" data-name="Rectangle 793"><g class="cls-2"><rect class="cls-3" x="7.31" y="7.8" width="50.55" height="0.97"/><rect class="cls-4" x="7.31" y="8.77" width="50.55" height="0.97"/><rect class="cls-5" x="7.31" y="9.74" width="50.55" height="0.97"/><rect class="cls-6" x="7.31" y="10.7" width="50.55" height="0.97"/><rect class="cls-7" x="7.31" y="11.67" width="50.55" height="0.97"/><rect class="cls-8" x="7.31" y="12.64" width="50.55" height="0.97"/><rect class="cls-9" x="7.31" y="13.61" width="50.55" height="0.97"/><rect class="cls-10" x="7.31" y="14.58" width="50.55" height="0.97"/><rect class="cls-11" x="7.31" y="15.55" width="50.55" height="0.97"/><rect class="cls-12" x="7.31" y="16.52" width="50.55" height="0.97"/><rect class="cls-13" x="7.31" y="17.48" width="50.55" height="0.97"/><rect class="cls-14" x="7.31" y="18.45" width="50.55" height="0.97"/><rect class="cls-15" x="7.31" y="19.42" width="50.55" height="0.97"/><rect class="cls-16" x="7.31" y="20.39" width="50.55" height="0.97"/><rect class="cls-17" x="7.31" y="21.36" width="50.55" height="0.97"/><rect class="cls-18" x="7.31" y="22.33" width="50.55" height="0.97"/><rect class="cls-19" x="7.31" y="23.3" width="50.55" height="0.97"/><rect class="cls-20" x="7.31" y="24.27" width="50.55" height="0.97"/><rect class="cls-21" x="7.31" y="25.23" width="50.55" height="0.97"/><rect class="cls-22" x="7.31" y="26.2" width="50.55" height="0.97"/><rect class="cls-23" x="7.31" y="27.17" width="50.55" height="0.97"/><rect class="cls-24" x="7.31" y="28.14" width="50.55" height="0.97"/><rect class="cls-25" x="7.31" y="29.11" width="50.55" height="0.97"/><rect class="cls-26" x="7.31" y="30.08" width="50.55" height="0.97"/><rect class="cls-27" x="7.31" y="31.05" width="50.55" height="0.97"/><rect class="cls-28" x="7.31" y="32.02" width="50.55" height="0.97"/><rect class="cls-29" x="7.31" y="32.98" width="50.55" height="0.97"/><rect class="cls-30" x="7.31" y="33.95" width="50.55" height="0.97"/><rect class="cls-31" x="7.31" y="34.92" width="50.55" height="0.97"/><rect class="cls-32" x="7.31" y="35.89" width="50.55" height="0.97"/><rect class="cls-33" x="7.31" y="36.86" width="50.55" height="0.97"/><rect class="cls-34" x="7.31" y="37.83" width="50.55" height="0.97"/><rect class="cls-35" x="7.31" y="38.8" width="50.55" height="0.97"/><rect class="cls-36" x="7.31" y="39.77" width="50.55" height="0.97"/><rect class="cls-37" x="7.31" y="40.73" width="50.55" height="0.97"/><rect class="cls-38" x="7.31" y="41.7" width="50.55" height="0.97"/><rect class="cls-39" x="7.31" y="42.67" width="50.55" height="0.97"/><rect class="cls-40" x="7.31" y="43.64" width="50.55" height="0.97"/><rect class="cls-41" x="7.31" y="44.61" width="50.55" height="0.97"/><rect class="cls-42" x="7.31" y="45.58" width="50.55" height="0.97"/><rect class="cls-43" x="7.31" y="46.55" width="50.55" height="0.97"/><rect class="cls-44" x="7.31" y="47.52" width="50.55" height="0.97"/><rect class="cls-45" x="7.31" y="48.48" width="50.55" height="0.97"/><rect class="cls-46" x="7.31" y="49.45" width="50.55" height="0.97"/><rect class="cls-47" x="7.31" y="50.42" width="50.55" height="0.97"/><rect class="cls-48" x="7.31" y="51.39" width="50.55" height="0.97"/><rect class="cls-49" x="7.31" y="52.36" width="50.55" height="0.97"/><rect class="cls-50" x="7.31" y="53.33" width="50.55" height="0.97"/><rect class="cls-51" x="7.31" y="54.3" width="50.55" height="0.97"/><rect class="cls-52" x="7.31" y="55.26" width="50.55" height="0.97"/><rect class="cls-53" x="7.31" y="56.23" width="50.55" height="0.97"/></g></g><g id="Rectangle_793-2" data-name="Rectangle 793"><rect class="cls-1" x="6.72" y="7.3" width="50.55" height="49.4" rx="6.89"/><path class="cls-54" d="M50.38,57.13H13.62A7.33,7.33,0,0,1,6.3,49.81V14.19a7.33,7.33,0,0,1,7.32-7.32H50.38a7.33,7.33,0,0,1,7.32,7.32V49.81A7.33,7.33,0,0,1,50.38,57.13ZM13.62,8.87A5.32,5.32,0,0,0,8.3,14.19V49.81a5.32,5.32,0,0,0,5.32,5.32H50.38a5.32,5.32,0,0,0,5.32-5.32V14.19a5.32,5.32,0,0,0-5.32-5.32Z"/></g><g id="Group_49" data-name="Group 49"><path id="Path_45" data-name="Path 45" class="cls-29" d="M47.65,40.66H39.44v9.11"/></g><g id="Group_50" data-name="Group 50"><path id="Path_46" data-name="Path 46" class="cls-55" d="M23.16,35.61v14H39.59l.15-.15,3.88-4.18c3.88-4.33,4-4.48,3.88-4.78V22.45H33.72"/></g><g id="Group_51" data-name="Group 51"><rect id="Rectangle_23" data-name="Rectangle 23" class="cls-54" x="27.09" y="45" width="5.5" height="1.05"/></g><g id="Group_52" data-name="Group 52"><rect id="Rectangle_24" data-name="Rectangle 24" class="cls-54" x="27.09" y="41.56" width="6.63" height="1.05"/></g><g id="Group_53" data-name="Group 53"><rect id="Rectangle_25" data-name="Rectangle 25" class="cls-54" x="27.09" y="38.28" width="7.62" height="1.05"/></g><g id="Group_830" data-name="Group 830"><g id="Group_48" data-name="Group 48"><g id="Group_47" data-name="Group 47"><path id="Path_42" data-name="Path 42" class="cls-55" d="M21.7,18.6a.46.46,0,0,0,.12-.53v-.42c0-.36-.06-.65-.06-1A2.22,2.22,0,0,1,22.65,15a1,1,0,0,0,.24-.42.69.69,0,0,1,.18-.24c.29-.18.65-.06,1.07.12.17.06.35.06.47.18.42.41.66.12,1,.12a2.65,2.65,0,0,1,1,.12,2.33,2.33,0,0,1,.83.59,2.75,2.75,0,0,1,.6,1.67.32.32,0,0,1-.06.23c0,.3-.06.6-.06.83v1a1.81,1.81,0,0,1-.24.71c-.06.12-.12.18-.12.3v.06A4.42,4.42,0,0,1,26,22.7a1.92,1.92,0,0,1-2.56-.18,4,4,0,0,1-1.36-2.37.5.5,0,0,0-.12-.24,2.24,2.24,0,0,1-.3-1.19A.17.17,0,0,0,21.7,18.6Z"/><g id="Group_46" data-name="Group 46"><path id="Path_43" data-name="Path 43" class="cls-55" d="M27.29,26.31a8.56,8.56,0,0,1,6.06,8.14"/><path id="Path_44" data-name="Path 44" class="cls-55" d="M16.35,34.51a8.5,8.5,0,0,1,6-8.14"/><g id="Group_45" data-name="Group 45"><line id="Line_21" data-name="Line 21" class="cls-55" x1="24.91" y1="30.23" x2="27.17" y2="26.31"/><line id="Line_22" data-name="Line 22" class="cls-55" x1="24.85" y1="30.23" x2="22.59" y2="26.31"/></g></g></g></g></g><polyline class="cls-55" points="32.03 16.23 44.22 16.23 44.22 20.18"/></svg>