<svg xmlns="http://www.w3.org/2000/svg" xmlns:xlink="http://www.w3.org/1999/xlink" viewBox="0 0 64 64"><defs><style>.cls-1,.cls-56{fill:none;}.cls-2{fill:#fff;}.cls-3{clip-path:url(#clip-path);}.cls-4{fill:#fefefe;}.cls-5{fill:#fdfdfd;}.cls-6{fill:#fcfcfc;}.cls-7{fill:#fbfbfb;}.cls-8{fill:#fafafa;}.cls-9{fill:#f9f9f9;}.cls-10{fill:#f8f8f8;}.cls-11{fill:#f7f7f7;}.cls-12{fill:#f6f6f6;}.cls-13{fill:#f5f5f5;}.cls-14{fill:#f4f4f4;}.cls-15{fill:#f3f3f3;}.cls-16{fill:#f2f2f2;}.cls-17{fill:#f1f1f1;}.cls-18{fill:#f0f0f0;}.cls-19{fill:#efefef;}.cls-20{fill:#eee;}.cls-21{fill:#ededed;}.cls-22{fill:#ececec;}.cls-23{fill:#ebebeb;}.cls-24{fill:#eaeaea;}.cls-25{fill:#e9e9e9;}.cls-26{fill:#e8e8e8;}.cls-27{fill:#e7e7e7;}.cls-28{fill:#e5e5e5;}.cls-29{fill:#e4e4e4;}.cls-30{fill:#e3e3e3;}.cls-31{fill:#e2e2e2;}.cls-32{fill:#e1e1e1;}.cls-33{fill:#e0e0e0;}.cls-34{fill:#dfdfdf;}.cls-35{fill:#dedede;}.cls-36{fill:#ddd;}.cls-37{fill:#dcdcdc;}.cls-38{fill:#dbdbdb;}.cls-39{fill:#dadada;}.cls-40{fill:#d9d9d9;}.cls-41{fill:#d8d8d8;}.cls-42{fill:#d7d7d7;}.cls-43{fill:#d6d6d6;}.cls-44{fill:#d5d5d5;}.cls-45{fill:#d4d4d4;}.cls-46{fill:#d3d3d3;}.cls-47{fill:#d2d2d2;}.cls-48{fill:#d1d1d1;}.cls-49{fill:#d0d0d0;}.cls-50{fill:#cfcfcf;}.cls-51{fill:#cecece;}.cls-52{fill:#cdcdcd;}.cls-53{fill:#ccc;}.cls-54,.cls-55{fill:#365b85;}.cls-55,.cls-56{stroke:#231f20;stroke-miterlimit:10;stroke-width:2px;}</style><clipPath id="clip-path"><rect class="cls-1" x="6.72" y="7.3" width="50.55" height="49.4" rx="6.89"/></clipPath></defs><title>Deal_Recommendation_Merits</title><g id="BG"><rect class="cls-2" width="64" height="64"/></g><g id="Deal_Recommendation_Merits"><g id="Rectangle_793" data-name="Rectangle 793"><g class="cls-3"><path class="cls-2" d="M57.28,7.3h0Z"/><rect class="cls-2" x="6.72" y="7.3" width="50.55" height="0.97"/><rect class="cls-4" x="6.72" y="8.27" width="50.55" height="0.97"/><rect class="cls-5" x="6.72" y="9.24" width="50.55" height="0.97"/><rect class="cls-6" x="6.72" y="10.2" width="50.55" height="0.97"/><rect class="cls-7" x="6.72" y="11.17" width="50.55" height="0.97"/><rect class="cls-8" x="6.72" y="12.14" width="50.55" height="0.97"/><rect class="cls-9" x="6.72" y="13.11" width="50.55" height="0.97"/><rect class="cls-10" x="6.72" y="14.08" width="50.55" height="0.97"/><rect class="cls-11" x="6.72" y="15.05" width="50.55" height="0.97"/><rect class="cls-12" x="6.72" y="16.02" width="50.55" height="0.97"/><rect class="cls-13" x="6.72" y="16.98" width="50.55" height="0.97"/><rect class="cls-14" x="6.72" y="17.95" width="50.55" height="0.97"/><rect class="cls-15" x="6.72" y="18.92" width="50.55" height="0.97"/><rect class="cls-16" x="6.72" y="19.89" width="50.55" height="0.97"/><rect class="cls-17" x="6.72" y="20.86" width="50.55" height="0.97"/><rect class="cls-18" x="6.72" y="21.83" width="50.55" height="0.97"/><rect class="cls-19" x="6.72" y="22.8" width="50.55" height="0.97"/><rect class="cls-20" x="6.72" y="23.77" width="50.55" height="0.97"/><rect class="cls-21" x="6.72" y="24.73" width="50.55" height="0.97"/><rect class="cls-22" x="6.72" y="25.7" width="50.55" height="0.97"/><rect class="cls-23" x="6.72" y="26.67" width="50.55" height="0.97"/><rect class="cls-24" x="6.72" y="27.64" width="50.55" height="0.97"/><rect class="cls-25" x="6.72" y="28.61" width="50.55" height="0.97"/><rect class="cls-26" x="6.72" y="29.58" width="50.55" height="0.97"/><rect class="cls-27" x="6.72" y="30.55" width="50.55" height="0.97"/><rect class="cls-28" x="6.72" y="31.52" width="50.55" height="0.97"/><rect class="cls-29" x="6.72" y="32.48" width="50.55" height="0.97"/><rect class="cls-30" x="6.72" y="33.45" width="50.55" height="0.97"/><rect class="cls-31" x="6.72" y="34.42" width="50.55" height="0.97"/><rect class="cls-32" x="6.72" y="35.39" width="50.55" height="0.97"/><rect class="cls-33" x="6.72" y="36.36" width="50.55" height="0.97"/><rect class="cls-34" x="6.72" y="37.33" width="50.55" height="0.97"/><rect class="cls-35" x="6.72" y="38.3" width="50.55" height="0.97"/><rect class="cls-36" x="6.72" y="39.27" width="50.55" height="0.97"/><rect class="cls-37" x="6.72" y="40.23" width="50.55" height="0.97"/><rect class="cls-38" x="6.72" y="41.2" width="50.55" height="0.97"/><rect class="cls-39" x="6.72" y="42.17" width="50.55" height="0.97"/><rect class="cls-40" x="6.72" y="43.14" width="50.55" height="0.97"/><rect class="cls-41" x="6.72" y="44.11" width="50.55" height="0.97"/><rect class="cls-42" x="6.72" y="45.08" width="50.55" height="0.97"/><rect class="cls-43" x="6.72" y="46.05" width="50.55" height="0.97"/><rect class="cls-44" x="6.72" y="47.02" width="50.55" height="0.97"/><rect class="cls-45" x="6.72" y="47.98" width="50.55" height="0.97"/><rect class="cls-46" x="6.72" y="48.95" width="50.55" height="0.97"/><rect class="cls-47" x="6.72" y="49.92" width="50.55" height="0.97"/><rect class="cls-48" x="6.72" y="50.89" width="50.55" height="0.97"/><rect class="cls-49" x="6.72" y="51.86" width="50.55" height="0.97"/><rect class="cls-50" x="6.72" y="52.83" width="50.55" height="0.97"/><rect class="cls-51" x="6.72" y="53.8" width="50.55" height="0.97"/><rect class="cls-52" x="6.72" y="54.76" width="50.55" height="0.97"/><rect class="cls-53" x="6.72" y="55.73" width="50.55" height="0.97"/><path class="cls-53" d="M6.72,56.7h0Z"/></g></g><g id="Rectangle_793-2" data-name="Rectangle 793"><rect class="cls-1" x="6.72" y="7.3" width="50.55" height="49.4" rx="6.89"/><path class="cls-54" d="M50.38,57.13H13.62A7.33,7.33,0,0,1,6.3,49.81V14.19a7.33,7.33,0,0,1,7.32-7.32H50.38a7.33,7.33,0,0,1,7.32,7.32V49.81A7.33,7.33,0,0,1,50.38,57.13ZM13.62,8.87A5.32,5.32,0,0,0,8.3,14.19V49.81a5.32,5.32,0,0,0,5.32,5.32H50.38a5.32,5.32,0,0,0,5.32-5.32V14.19a5.32,5.32,0,0,0-5.32-5.32Z"/></g><g id="Path_63" data-name="Path 63"><polygon class="cls-54" points="28.63 50.13 12.38 50.13 12.38 12.94 41.91 12.94 41.91 25.03 39.91 25.03 39.91 14.94 14.38 14.94 14.38 48.13 28.63 48.13 28.63 50.13"/></g><g id="Line_35" data-name="Line 35"><rect class="cls-54" x="17.1" y="19.79" width="17.86" height="2"/></g><g id="Line_36" data-name="Line 36"><rect class="cls-54" x="17.1" y="24.03" width="15.77" height="2"/></g><g id="Line_39" data-name="Line 39"><path class="cls-55" d="M22.2,39.56"/></g><g id="Line_39-2" data-name="Line 39"><path class="cls-56" d="M12,39.56"/></g><g id="Line_40" data-name="Line 40"><path class="cls-55" d="M19,45.18"/></g><g id="Line_40-2" data-name="Line 40"><path class="cls-56" d="M12,45.18"/></g><path class="cls-54" d="M47.5,52.38l-8.08-4.24-8.07,4.24,1.54-9L26.35,37l9-1.31,4-8.18,4,8.18,9,1.31L46,43.39Zm-8.08-6.5,5.42,2.85-1-6,4.38-4.27-6.06-.88-2.71-5.49-2.71,5.49-6.06.88L35,42.69l-1,6Z"/><g id="Path_47" data-name="Path 47"><path class="cls-54" d="M42.48,39.49h0c-1.4,1.2-2.8,2.5-4.19,3.7h0c-.7-.7-1.3-1.5-2-2.2.3-.3.6-.5.9-.8.4.4.8.9,1.2,1.3,1.09-1,2.19-1.9,3.29-2.89v.1a3,3,0,0,1,.8.79C42.38,39.39,42.48,39.39,42.48,39.49Z"/></g></g></svg>