<svg xmlns="http://www.w3.org/2000/svg" xmlns:xlink="http://www.w3.org/1999/xlink" viewBox="0 0 64 64"><defs><style>.cls-1{fill:none;}.cls-2{fill:#fff;}.cls-3{clip-path:url(#clip-path);}.cls-4{fill:#fefefe;}.cls-5{fill:#fdfdfd;}.cls-6{fill:#fcfcfc;}.cls-7{fill:#fbfbfb;}.cls-8{fill:#fafafa;}.cls-9{fill:#f9f9f9;}.cls-10{fill:#f8f8f8;}.cls-11{fill:#f7f7f7;}.cls-12{fill:#f6f6f6;}.cls-13{fill:#f5f5f5;}.cls-14{fill:#f4f4f4;}.cls-15{fill:#f3f3f3;}.cls-16{fill:#f2f2f2;}.cls-17{fill:#f1f1f1;}.cls-18{fill:#f0f0f0;}.cls-19{fill:#efefef;}.cls-20{fill:#eee;}.cls-21{fill:#ededed;}.cls-22{fill:#ececec;}.cls-23{fill:#ebebeb;}.cls-24{fill:#eaeaea;}.cls-25{fill:#e9e9e9;}.cls-26{fill:#e8e8e8;}.cls-27{fill:#e7e7e7;}.cls-28{fill:#e5e5e5;}.cls-29{fill:#e4e4e4;}.cls-30{fill:#e3e3e3;}.cls-31{fill:#e2e2e2;}.cls-32{fill:#e1e1e1;}.cls-33{fill:#e0e0e0;}.cls-34{fill:#dfdfdf;}.cls-35{fill:#dedede;}.cls-36{fill:#ddd;}.cls-37{fill:#dcdcdc;}.cls-38{fill:#dbdbdb;}.cls-39{fill:#dadada;}.cls-40{fill:#d9d9d9;}.cls-41{fill:#d8d8d8;}.cls-42{fill:#d7d7d7;}.cls-43{fill:#d6d6d6;}.cls-44{fill:#d5d5d5;}.cls-45{fill:#d4d4d4;}.cls-46{fill:#d3d3d3;}.cls-47{fill:#d2d2d2;}.cls-48{fill:#d1d1d1;}.cls-49{fill:#d0d0d0;}.cls-50{fill:#cfcfcf;}.cls-51{fill:#cecece;}.cls-52{fill:#cdcdcd;}.cls-53{fill:#ccc;}.cls-54{fill:#365b85;}</style><clipPath id="clip-path"><rect class="cls-1" x="6.72" y="7.3" width="50.55" height="49.4" rx="6.89"/></clipPath></defs><title>Eligibility</title><g id="BG"><rect class="cls-2" width="64" height="64"/></g><g id="Eligibility"><g id="Rectangle_793" data-name="Rectangle 793"><g class="cls-3"><path class="cls-2" d="M57.28,7.3h0Z"/><rect class="cls-2" x="6.72" y="7.3" width="50.55" height="0.97"/><rect class="cls-4" x="6.72" y="8.27" width="50.55" height="0.97"/><rect class="cls-5" x="6.72" y="9.24" width="50.55" height="0.97"/><rect class="cls-6" x="6.72" y="10.2" width="50.55" height="0.97"/><rect class="cls-7" x="6.72" y="11.17" width="50.55" height="0.97"/><rect class="cls-8" x="6.72" y="12.14" width="50.55" height="0.97"/><rect class="cls-9" x="6.72" y="13.11" width="50.55" height="0.97"/><rect class="cls-10" x="6.72" y="14.08" width="50.55" height="0.97"/><rect class="cls-11" x="6.72" y="15.05" width="50.55" height="0.97"/><rect class="cls-12" x="6.72" y="16.02" width="50.55" height="0.97"/><rect class="cls-13" x="6.72" y="16.98" width="50.55" height="0.97"/><rect class="cls-14" x="6.72" y="17.95" width="50.55" height="0.97"/><rect class="cls-15" x="6.72" y="18.92" width="50.55" height="0.97"/><rect class="cls-16" x="6.72" y="19.89" width="50.55" height="0.97"/><rect class="cls-17" x="6.72" y="20.86" width="50.55" height="0.97"/><rect class="cls-18" x="6.72" y="21.83" width="50.55" height="0.97"/><rect class="cls-19" x="6.72" y="22.8" width="50.55" height="0.97"/><rect class="cls-20" x="6.72" y="23.77" width="50.55" height="0.97"/><rect class="cls-21" x="6.72" y="24.73" width="50.55" height="0.97"/><rect class="cls-22" x="6.72" y="25.7" width="50.55" height="0.97"/><rect class="cls-23" x="6.72" y="26.67" width="50.55" height="0.97"/><rect class="cls-24" x="6.72" y="27.64" width="50.55" height="0.97"/><rect class="cls-25" x="6.72" y="28.61" width="50.55" height="0.97"/><rect class="cls-26" x="6.72" y="29.58" width="50.55" height="0.97"/><rect class="cls-27" x="6.72" y="30.55" width="50.55" height="0.97"/><rect class="cls-28" x="6.72" y="31.52" width="50.55" height="0.97"/><rect class="cls-29" x="6.72" y="32.48" width="50.55" height="0.97"/><rect class="cls-30" x="6.72" y="33.45" width="50.55" height="0.97"/><rect class="cls-31" x="6.72" y="34.42" width="50.55" height="0.97"/><rect class="cls-32" x="6.72" y="35.39" width="50.55" height="0.97"/><rect class="cls-33" x="6.72" y="36.36" width="50.55" height="0.97"/><rect class="cls-34" x="6.72" y="37.33" width="50.55" height="0.97"/><rect class="cls-35" x="6.72" y="38.3" width="50.55" height="0.97"/><rect class="cls-36" x="6.72" y="39.27" width="50.55" height="0.97"/><rect class="cls-37" x="6.72" y="40.23" width="50.55" height="0.97"/><rect class="cls-38" x="6.72" y="41.2" width="50.55" height="0.97"/><rect class="cls-39" x="6.72" y="42.17" width="50.55" height="0.97"/><rect class="cls-40" x="6.72" y="43.14" width="50.55" height="0.97"/><rect class="cls-41" x="6.72" y="44.11" width="50.55" height="0.97"/><rect class="cls-42" x="6.72" y="45.08" width="50.55" height="0.97"/><rect class="cls-43" x="6.72" y="46.05" width="50.55" height="0.97"/><rect class="cls-44" x="6.72" y="47.02" width="50.55" height="0.97"/><rect class="cls-45" x="6.72" y="47.98" width="50.55" height="0.97"/><rect class="cls-46" x="6.72" y="48.95" width="50.55" height="0.97"/><rect class="cls-47" x="6.72" y="49.92" width="50.55" height="0.97"/><rect class="cls-48" x="6.72" y="50.89" width="50.55" height="0.97"/><rect class="cls-49" x="6.72" y="51.86" width="50.55" height="0.97"/><rect class="cls-50" x="6.72" y="52.83" width="50.55" height="0.97"/><rect class="cls-51" x="6.72" y="53.8" width="50.55" height="0.97"/><rect class="cls-52" x="6.72" y="54.76" width="50.55" height="0.97"/><rect class="cls-53" x="6.72" y="55.73" width="50.55" height="0.97"/><path class="cls-53" d="M6.72,56.7h0Z"/></g></g><g id="Rectangle_793-2" data-name="Rectangle 793"><rect class="cls-1" x="6.72" y="7.3" width="50.55" height="49.4" rx="6.89"/><path class="cls-54" d="M50.38,57.13H13.62A7.33,7.33,0,0,1,6.3,49.81V14.19a7.33,7.33,0,0,1,7.32-7.32H50.38a7.33,7.33,0,0,1,7.32,7.32V49.81A7.33,7.33,0,0,1,50.38,57.13ZM13.62,8.87A5.32,5.32,0,0,0,8.3,14.19V49.81a5.32,5.32,0,0,0,5.32,5.32H50.38a5.32,5.32,0,0,0,5.32-5.32V14.19a5.32,5.32,0,0,0-5.32-5.32Z"/></g><g id="Group_830" data-name="Group 830"><g id="Group_48" data-name="Group 48"><g id="Group_47" data-name="Group 47"><g id="Path_42" data-name="Path 42"><path class="cls-54" d="M27.81,30a4.41,4.41,0,0,1-3.18-1.34,8.18,8.18,0,0,1-2.71-4.73l-.1-.16a5.14,5.14,0,0,1-.66-2.63v-.43l.12-.12,0-.12.2-.19,0-.09v-.94c0-.29,0-.55-.05-.82s-.06-.64-.06-1a5,5,0,0,1,1.92-3.71.68.68,0,0,0,.13-.27l.07-.18a2.72,2.72,0,0,1,.54-.72l.16-.12a3,3,0,0,1,2.82.15l.13,0a2.08,2.08,0,0,1,1,.51.63.63,0,0,0,.13.11s.09,0,.16-.06a3.18,3.18,0,0,1,.81-.13,5.75,5.75,0,0,1,2.1.26l.1,0a5.37,5.37,0,0,1,1.83,1.3,6.1,6.1,0,0,1,1.32,3.63,1.35,1.35,0,0,1-.11.69q0,.36-.06.69c0,.2,0,.38,0,.55v1.94a4.61,4.61,0,0,1-.54,1.63s0,.1-.09.16l0,.24A9,9,0,0,1,30.52,29,4.43,4.43,0,0,1,27.81,30Zm-4.29-7.29a1.83,1.83,0,0,1,.37.84A6.16,6.16,0,0,0,26,27.16a2.47,2.47,0,0,0,3.31.3,7,7,0,0,0,2.48-3.7,1.73,1.73,0,0,1,.26-.85l.06-.1a2.79,2.79,0,0,0,.32-.9V20.17a7.07,7.07,0,0,1,0-.76,5.83,5.83,0,0,0,.06-.72v-.31l.1-.16a4.12,4.12,0,0,0-.85-2.32,3.34,3.34,0,0,0-1.05-.74A4.07,4.07,0,0,0,29.34,15a1.2,1.2,0,0,0-.33.06,2,2,0,0,1-2.19-.51l-.13,0-.39-.1a3.25,3.25,0,0,0-1-.32,2.77,2.77,0,0,1-.63,1l-.12.11a3,3,0,0,0-1.19,2.23c0,.23,0,.49.05.75s.06.65.06,1v.58a1.86,1.86,0,0,1-.32,1.61A3.14,3.14,0,0,0,23.52,22.68Zm-1.6,1.17Zm10.72-5.54a.06.06,0,0,0,0,.06Z"/></g><g id="Group_46" data-name="Group 46"><g id="Path_43" data-name="Path 43"><path class="cls-54" d="M39.26,37.21A14.28,14.28,0,0,0,32,32.07l.58-1.91A16.22,16.22,0,0,1,40.86,36Z"/></g><g id="Path_44" data-name="Path 44"><path class="cls-54" d="M11.7,45.78A16.12,16.12,0,0,1,23.14,30.27l.59,1.91a14.13,14.13,0,0,0-10,13.6Z"/></g><g id="Group_45" data-name="Group 45"><g id="Line_21" data-name="Line 21"><rect class="cls-54" x="25.97" y="33.62" width="8.09" height="2" transform="translate(-14.96 43.36) rotate(-60.07)"/></g><g id="Line_22" data-name="Line 22"><rect class="cls-54" x="24.88" y="30.58" width="2" height="8.09" transform="translate(-13.82 17.53) rotate(-29.93)"/></g></g></g></g></g></g><polygon class="cls-54" points="34.71 52.3 28.09 45.68 29.5 44.27 34.71 49.48 50.59 33.59 52.01 35.01 34.71 52.3"/></g></svg>