<svg xmlns="http://www.w3.org/2000/svg" xmlns:xlink="http://www.w3.org/1999/xlink" viewBox="0 0 64 64"><defs><style>.cls-1{fill:#fff;}.cls-2{fill:url(#linear-gradient);}.cls-3{fill:none;}.cls-4,.cls-5{fill:#365b85;}.cls-5{stroke:#231f20;stroke-miterlimit:10;stroke-width:2px;}</style><linearGradient id="linear-gradient" x1="32" y1="7.3" x2="32" y2="56.7" gradientUnits="userSpaceOnUse"><stop offset="0" stop-color="#fff"/><stop offset="1" stop-color="#ccc"/></linearGradient></defs><title>Reference</title><g id="BG"><rect class="cls-1" width="64" height="64"/></g><g id="Reference"><g id="Rectangle_793" data-name="Rectangle 793"><rect class="cls-2" x="6.72" y="7.3" width="50.55" height="49.4" rx="6.89"/></g><g id="Rectangle_793-2" data-name="Rectangle 793"><rect class="cls-3" x="6.72" y="7.3" width="50.55" height="49.4" rx="6.89"/><path class="cls-4" d="M50.38,57.13H13.62A7.33,7.33,0,0,1,6.3,49.81V14.19a7.33,7.33,0,0,1,7.32-7.32H50.38a7.33,7.33,0,0,1,7.32,7.32V49.81A7.33,7.33,0,0,1,50.38,57.13ZM13.62,8.87A5.32,5.32,0,0,0,8.3,14.19V49.81a5.32,5.32,0,0,0,5.32,5.32H50.38a5.32,5.32,0,0,0,5.32-5.32V14.19a5.32,5.32,0,0,0-5.32-5.32Z"/></g><g id="Group_830" data-name="Group 830"><g id="Group_48" data-name="Group 48"><g id="Group_47" data-name="Group 47"><g id="Path_42" data-name="Path 42"><path class="cls-4" d="M39.06,39.85a3.64,3.64,0,0,1-2.63-1.12A6.5,6.5,0,0,1,34.28,35l-.07-.12a4.3,4.3,0,0,1-.54-2.16v-.43l.1-.1v-.09l.13-.12v-.72a5.68,5.68,0,0,0,0-.61c0-.26,0-.52,0-.79a4.11,4.11,0,0,1,1.55-3.05.47.47,0,0,0,0-.1l.07-.18a2,2,0,0,1,.46-.62l.16-.13a2.6,2.6,0,0,1,2.4.11s0,0,0,0a1.83,1.83,0,0,1,.91.44h0a2.35,2.35,0,0,1,.68-.11,4.62,4.62,0,0,1,1.7.21l.1,0a4.24,4.24,0,0,1,1.5,1.08,4.91,4.91,0,0,1,1.08,3,1.31,1.31,0,0,1-.09.6,4,4,0,0,1,0,.5c0,.15,0,.29,0,.41v1.53A3.59,3.59,0,0,1,44,34.9l0,.08,0,.17a7.19,7.19,0,0,1-2.58,3.93A3.71,3.71,0,0,1,39.06,39.85Zm-3.14-6a1.67,1.67,0,0,1,.31.74,4.61,4.61,0,0,0,1.56,2.69,1.7,1.7,0,0,0,2.29.22,5.19,5.19,0,0,0,1.84-2.74,1.66,1.66,0,0,1,.23-.72l.06-.11a1.69,1.69,0,0,0,.2-.57V32c0-.19,0-.4,0-.62a4.56,4.56,0,0,0,0-.54v-.3l.08-.12a3,3,0,0,0-.61-1.6,2.48,2.48,0,0,0-.71-.5,2.76,2.76,0,0,0-1-.1.79.79,0,0,0-.21,0,1.77,1.77,0,0,1-1.87-.4h0a1.68,1.68,0,0,1-.32-.09l-.56-.21a2.37,2.37,0,0,1-.47.71l-.12.1a2.1,2.1,0,0,0-.84,1.56c0,.16,0,.36,0,.56a6.56,6.56,0,0,1,.05.79v.42A1.63,1.63,0,0,1,35.68,33,2.25,2.25,0,0,0,35.92,33.84Zm-1.66,1.07h0Zm8.32-4.34v0Z"/></g><g id="Group_46" data-name="Group 46"><g id="Path_43" data-name="Path 43"><path class="cls-4" d="M49.91,51.81a10.81,10.81,0,0,0-7.7-10.34l.58-1.92A12.82,12.82,0,0,1,51.91,51.8Z"/></g><g id="Path_44" data-name="Path 44"><path class="cls-4" d="M26.33,51.89a12.74,12.74,0,0,1,9-12.25L36,41.55a10.75,10.75,0,0,0-7.62,10.33Z"/></g><g id="Group_45" data-name="Group 45"><g id="Line_21" data-name="Line 21"><rect class="cls-4" x="37.63" y="42.23" width="6.28" height="2" transform="translate(-17.04 56.98) rotate(-60.05)"/></g><g id="Line_22" data-name="Line 22"><rect class="cls-4" x="36.56" y="40.09" width="2" height="6.28" transform="translate(-16.56 24.5) rotate(-29.93)"/></g></g></g></g><g id="Line_23" data-name="Line 23"><rect class="cls-4" x="31.53" y="47.19" width="2" height="4.7"/></g><g id="Line_24" data-name="Line 24"><rect class="cls-4" x="44.72" y="47.19" width="2" height="4.7"/></g></g></g><g id="Group_830-2" data-name="Group 830"><g id="Group_48-2" data-name="Group 48"><g id="Group_47-2" data-name="Group 47"><g id="Path_42-2" data-name="Path 42"><path class="cls-4" d="M20.54,29.06a4.07,4.07,0,0,1-2.92-1.23,7.44,7.44,0,0,1-2.44-4.24l-.09-.15a4.68,4.68,0,0,1-.6-2.4v-.43l.12-.11v-.11l.16-.15v-.89c0-.25,0-.49,0-.72s-.05-.58-.05-.89a4.61,4.61,0,0,1,1.74-3.4.5.5,0,0,0,.1-.19l.07-.18a2.18,2.18,0,0,1,.5-.67l.16-.12a2.82,2.82,0,0,1,2.62.12l.09,0a1.89,1.89,0,0,1,1,.48l.06,0,.1,0a2.79,2.79,0,0,1,.75-.12,5.32,5.32,0,0,1,1.91.23l.1,0a4.85,4.85,0,0,1,1.67,1.2,5.49,5.49,0,0,1,1.21,3.3,1.38,1.38,0,0,1-.1.65c0,.2,0,.4-.05.6a4.43,4.43,0,0,0,0,.48V22a4.11,4.11,0,0,1-.5,1.49.66.66,0,0,1-.06.12l0,.21A8.08,8.08,0,0,1,23,28.21,4.08,4.08,0,0,1,20.54,29.06ZM16.8,22.39a1.76,1.76,0,0,1,.34.78A5.45,5.45,0,0,0,19,26.37a2.12,2.12,0,0,0,2.83.26A6.16,6.16,0,0,0,24,23.38a1.66,1.66,0,0,1,.24-.79l.07-.12a2.11,2.11,0,0,0,.25-.73V20.2a5.89,5.89,0,0,1,.05-.69c0-.21,0-.42,0-.64v-.3l.09-.14a3.55,3.55,0,0,0-.74-2,2.82,2.82,0,0,0-.88-.62,3.24,3.24,0,0,0-1.2-.13,1.16,1.16,0,0,0-.28.05,1.94,1.94,0,0,1-2-.46l-.09,0-.35-.1a3.84,3.84,0,0,0-.78-.27,2.7,2.7,0,0,1-.56.88l-.12.1a2.56,2.56,0,0,0-1,1.91c0,.2,0,.43,0,.66a8.5,8.5,0,0,1,.06.9v.51a1.77,1.77,0,0,1-.28,1.48A2.76,2.76,0,0,0,16.8,22.39Zm-1.63,1.12Zm9.58-5s0,0,0,.06Zm-5.1-3.24Z"/></g><g id="Group_46-2" data-name="Group 46"><g id="Path_43-2" data-name="Path 43"><path class="cls-4" d="M26.69,32a12.23,12.23,0,0,0-2.47-1L24.8,29a15.76,15.76,0,0,1,2.87,1.22Z"/></g><g id="Path_44-2" data-name="Path 44"><path class="cls-4" d="M13.58,32.63,12.46,31a14.52,14.52,0,0,1,3.87-1.85L16.92,31A12.85,12.85,0,0,0,13.58,32.63Z"/></g><g id="Group_45-2" data-name="Group 45"><g id="Line_21-2" data-name="Line 21"><rect class="cls-4" x="18.9" y="32.11" width="7.23" height="2" transform="translate(-17.42 36.1) rotate(-60.07)"/></g><g id="Line_22-2" data-name="Line 22"><rect class="cls-4" x="17.81" y="29.5" width="2" height="7.23" transform="translate(-14.01 13.8) rotate(-29.93)"/></g></g></g></g></g></g><path class="cls-5" d="M21.5,30.59"/><path class="cls-5" d="M20.72,42.93"/><path class="cls-4" d="M25,49.21h-1a9,9,0,0,1-9-9v-.27h2v.27a7,7,0,0,0,7,7h1Z"/><polygon class="cls-4" points="13.71 43.24 12.3 41.83 16.06 38.06 19.82 41.83 18.4 43.24 16.06 40.89 13.71 43.24"/></g></svg>