<svg xmlns="http://www.w3.org/2000/svg" xmlns:xlink="http://www.w3.org/1999/xlink" viewBox="0 0 64 64"><defs><style>.cls-1{fill:none;}.cls-2{fill:#fff;}.cls-3{clip-path:url(#clip-path);}.cls-4{fill:#fefefe;}.cls-5{fill:#fdfdfd;}.cls-6{fill:#fcfcfc;}.cls-7{fill:#fbfbfb;}.cls-8{fill:#fafafa;}.cls-9{fill:#f9f9f9;}.cls-10{fill:#f8f8f8;}.cls-11{fill:#f7f7f7;}.cls-12{fill:#f6f6f6;}.cls-13{fill:#f5f5f5;}.cls-14{fill:#f4f4f4;}.cls-15{fill:#f3f3f3;}.cls-16{fill:#f2f2f2;}.cls-17{fill:#f1f1f1;}.cls-18{fill:#f0f0f0;}.cls-19{fill:#efefef;}.cls-20{fill:#eee;}.cls-21{fill:#ededed;}.cls-22{fill:#ececec;}.cls-23{fill:#ebebeb;}.cls-24{fill:#eaeaea;}.cls-25{fill:#e9e9e9;}.cls-26{fill:#e8e8e8;}.cls-27{fill:#e7e7e7;}.cls-28{fill:#e5e5e5;}.cls-29{fill:#e4e4e4;}.cls-30{fill:#e3e3e3;}.cls-31{fill:#e2e2e2;}.cls-32{fill:#e1e1e1;}.cls-33{fill:#e0e0e0;}.cls-34{fill:#dfdfdf;}.cls-35{fill:#dedede;}.cls-36{fill:#ddd;}.cls-37{fill:#dcdcdc;}.cls-38{fill:#dbdbdb;}.cls-39{fill:#dadada;}.cls-40{fill:#d9d9d9;}.cls-41{fill:#d8d8d8;}.cls-42{fill:#d7d7d7;}.cls-43{fill:#d6d6d6;}.cls-44{fill:#d5d5d5;}.cls-45{fill:#d4d4d4;}.cls-46{fill:#d3d3d3;}.cls-47{fill:#d2d2d2;}.cls-48{fill:#d1d1d1;}.cls-49{fill:#d0d0d0;}.cls-50{fill:#cfcfcf;}.cls-51{fill:#cecece;}.cls-52{fill:#cdcdcd;}.cls-53{fill:#ccc;}.cls-54{fill:#365b85;}</style><clipPath id="clip-path"><rect class="cls-1" x="6.72" y="7.3" width="50.55" height="49.4" rx="6.89"/></clipPath></defs><title>Risks and Mitigants</title><g id="BG"><rect class="cls-2" width="64" height="64"/></g><g id="Risks_and_Mitigants" data-name="Risks and Mitigants"><g id="Rectangle_793" data-name="Rectangle 793"><g class="cls-3"><path class="cls-2" d="M57.28,7.3h0Z"/><rect class="cls-2" x="6.72" y="7.3" width="50.55" height="0.97"/><rect class="cls-4" x="6.72" y="8.27" width="50.55" height="0.97"/><rect class="cls-5" x="6.72" y="9.24" width="50.55" height="0.97"/><rect class="cls-6" x="6.72" y="10.2" width="50.55" height="0.97"/><rect class="cls-7" x="6.72" y="11.17" width="50.55" height="0.97"/><rect class="cls-8" x="6.72" y="12.14" width="50.55" height="0.97"/><rect class="cls-9" x="6.72" y="13.11" width="50.55" height="0.97"/><rect class="cls-10" x="6.72" y="14.08" width="50.55" height="0.97"/><rect class="cls-11" x="6.72" y="15.05" width="50.55" height="0.97"/><rect class="cls-12" x="6.72" y="16.02" width="50.55" height="0.97"/><rect class="cls-13" x="6.72" y="16.98" width="50.55" height="0.97"/><rect class="cls-14" x="6.72" y="17.95" width="50.55" height="0.97"/><rect class="cls-15" x="6.72" y="18.92" width="50.55" height="0.97"/><rect class="cls-16" x="6.72" y="19.89" width="50.55" height="0.97"/><rect class="cls-17" x="6.72" y="20.86" width="50.55" height="0.97"/><rect class="cls-18" x="6.72" y="21.83" width="50.55" height="0.97"/><rect class="cls-19" x="6.72" y="22.8" width="50.55" height="0.97"/><rect class="cls-20" x="6.72" y="23.77" width="50.55" height="0.97"/><rect class="cls-21" x="6.72" y="24.73" width="50.55" height="0.97"/><rect class="cls-22" x="6.72" y="25.7" width="50.55" height="0.97"/><rect class="cls-23" x="6.72" y="26.67" width="50.55" height="0.97"/><rect class="cls-24" x="6.72" y="27.64" width="50.55" height="0.97"/><rect class="cls-25" x="6.72" y="28.61" width="50.55" height="0.97"/><rect class="cls-26" x="6.72" y="29.58" width="50.55" height="0.97"/><rect class="cls-27" x="6.72" y="30.55" width="50.55" height="0.97"/><rect class="cls-28" x="6.72" y="31.52" width="50.55" height="0.97"/><rect class="cls-29" x="6.72" y="32.48" width="50.55" height="0.97"/><rect class="cls-30" x="6.72" y="33.45" width="50.55" height="0.97"/><rect class="cls-31" x="6.72" y="34.42" width="50.55" height="0.97"/><rect class="cls-32" x="6.72" y="35.39" width="50.55" height="0.97"/><rect class="cls-33" x="6.72" y="36.36" width="50.55" height="0.97"/><rect class="cls-34" x="6.72" y="37.33" width="50.55" height="0.97"/><rect class="cls-35" x="6.72" y="38.3" width="50.55" height="0.97"/><rect class="cls-36" x="6.72" y="39.27" width="50.55" height="0.97"/><rect class="cls-37" x="6.72" y="40.23" width="50.55" height="0.97"/><rect class="cls-38" x="6.72" y="41.2" width="50.55" height="0.97"/><rect class="cls-39" x="6.72" y="42.17" width="50.55" height="0.97"/><rect class="cls-40" x="6.72" y="43.14" width="50.55" height="0.97"/><rect class="cls-41" x="6.72" y="44.11" width="50.55" height="0.97"/><rect class="cls-42" x="6.72" y="45.08" width="50.55" height="0.97"/><rect class="cls-43" x="6.72" y="46.05" width="50.55" height="0.97"/><rect class="cls-44" x="6.72" y="47.02" width="50.55" height="0.97"/><rect class="cls-45" x="6.72" y="47.98" width="50.55" height="0.97"/><rect class="cls-46" x="6.72" y="48.95" width="50.55" height="0.97"/><rect class="cls-47" x="6.72" y="49.92" width="50.55" height="0.97"/><rect class="cls-48" x="6.72" y="50.89" width="50.55" height="0.97"/><rect class="cls-49" x="6.72" y="51.86" width="50.55" height="0.97"/><rect class="cls-50" x="6.72" y="52.83" width="50.55" height="0.97"/><rect class="cls-51" x="6.72" y="53.8" width="50.55" height="0.97"/><rect class="cls-52" x="6.72" y="54.76" width="50.55" height="0.97"/><rect class="cls-53" x="6.72" y="55.73" width="50.55" height="0.97"/><path class="cls-53" d="M6.72,56.7h0Z"/></g></g><g id="Rectangle_793-2" data-name="Rectangle 793"><rect class="cls-1" x="6.72" y="7.3" width="50.55" height="49.4" rx="6.89"/><path class="cls-54" d="M50.38,57.13H13.62A7.33,7.33,0,0,1,6.3,49.81V14.19a7.33,7.33,0,0,1,7.32-7.32H50.38a7.33,7.33,0,0,1,7.32,7.32V49.81A7.33,7.33,0,0,1,50.38,57.13ZM13.62,8.87A5.32,5.32,0,0,0,8.3,14.19V49.81a5.32,5.32,0,0,0,5.32,5.32H50.38a5.32,5.32,0,0,0,5.32-5.32V14.19a5.32,5.32,0,0,0-5.32-5.32Z"/></g><g id="Group_61" data-name="Group 61"><g id="Path_48" data-name="Path 48"><polygon class="cls-54" points="52.61 47.71 11.39 47.71 11.39 20.4 16.84 20.4 16.84 22.4 13.39 22.4 13.39 45.71 50.61 45.71 50.61 22.4 47.67 22.4 47.67 20.4 52.61 20.4 52.61 47.71"/></g><g id="Line_25" data-name="Line 25"><rect class="cls-54" x="24.41" y="49.51" width="15.19" height="2"/></g></g><path class="cls-54" d="M34.85,39h-5.7V36.06A11.23,11.23,0,0,1,26.49,35L24.41,37l-4-4,2.08-2.08a10.6,10.6,0,0,1-1.1-2.65H18.42v-5.7h2.95a10.67,10.67,0,0,1,1.1-2.66l-2.08-2.08,4-4,2.08,2.08a11.23,11.23,0,0,1,2.66-1.1V11.85h5.7v2.94a11.23,11.23,0,0,1,2.66,1.1l2.07-2.08,4,4-2.07,2.08a11,11,0,0,1,1.09,2.66h2.95v5.7H42.63a11,11,0,0,1-1.09,2.65L43.61,33l-4,4L37.51,35a10.83,10.83,0,0,1-2.66,1.1Zm-3.7-2h1.7V34.43l.82-.15a9,9,0,0,0,3.41-1.41l.69-.47,1.81,1.81L40.79,33,39,31.2l.47-.69a9,9,0,0,0,1.41-3.42l.15-.81h2.58v-1.7H41l-.15-.82a9.09,9.09,0,0,0-1.41-3.42L39,19.66l1.82-1.82-1.21-1.2-1.81,1.82L37.08,18a8.83,8.83,0,0,0-3.41-1.41l-.82-.16V13.85h-1.7v2.57l-.82.16A8.83,8.83,0,0,0,26.92,18l-.69.47-1.82-1.82-1.2,1.2L25,19.66l-.47.68a9.09,9.09,0,0,0-1.41,3.42l-.15.82H20.42v1.7H23l.15.81a9,9,0,0,0,1.41,3.42l.47.69L23.21,33l1.2,1.2,1.82-1.81.69.47a9,9,0,0,0,3.41,1.41l.82.15Z"/><path class="cls-54" d="M35.85,31h-7.7a2.75,2.75,0,0,1-2.35-4.16l3.85-6.39a2.75,2.75,0,0,1,4.7,0l3.85,6.39A2.75,2.75,0,0,1,35.85,31ZM32,21.12a.73.73,0,0,0-.64.36l-3.85,6.38A.75.75,0,0,0,28.15,29h7.7a.75.75,0,0,0,.64-1.13l-3.85-6.38A.73.73,0,0,0,32,21.12Z"/><polygon class="cls-54" points="32.31 26.94 31.68 26.94 31.37 23.14 32.63 23.14 32.31 26.94"/><rect class="cls-54" x="31" y="27.33" width="2" height="0.69"/></g></svg>