<svg id="VAS" xmlns="http://www.w3.org/2000/svg" xmlns:xlink="http://www.w3.org/1999/xlink" viewBox="0 0 64 64"><defs><style>.cls-1,.cls-55{fill:none;}.cls-2{clip-path:url(#clip-path);}.cls-3{fill:#fff;}.cls-4{fill:#fefefe;}.cls-5{fill:#fdfdfd;}.cls-6{fill:#fcfcfc;}.cls-7{fill:#fbfbfb;}.cls-8{fill:#fafafa;}.cls-9{fill:#f9f9f9;}.cls-10{fill:#f8f8f8;}.cls-11{fill:#f7f7f7;}.cls-12{fill:#f6f6f6;}.cls-13{fill:#f5f5f5;}.cls-14{fill:#f4f4f4;}.cls-15{fill:#f3f3f3;}.cls-16{fill:#f2f2f2;}.cls-17{fill:#f1f1f1;}.cls-18{fill:#f0f0f0;}.cls-19{fill:#efefef;}.cls-20{fill:#eee;}.cls-21{fill:#ededed;}.cls-22{fill:#ececec;}.cls-23{fill:#ebebeb;}.cls-24{fill:#eaeaea;}.cls-25{fill:#e9e9e9;}.cls-26{fill:#e8e8e8;}.cls-27{fill:#e7e7e7;}.cls-28{fill:#e5e5e5;}.cls-29{fill:#e4e4e4;}.cls-30{fill:#e3e3e3;}.cls-31{fill:#e2e2e2;}.cls-32{fill:#e1e1e1;}.cls-33{fill:#e0e0e0;}.cls-34{fill:#dfdfdf;}.cls-35{fill:#dedede;}.cls-36{fill:#ddd;}.cls-37{fill:#dcdcdc;}.cls-38{fill:#dbdbdb;}.cls-39{fill:#dadada;}.cls-40{fill:#d9d9d9;}.cls-41{fill:#d8d8d8;}.cls-42{fill:#d7d7d7;}.cls-43{fill:#d6d6d6;}.cls-44{fill:#d5d5d5;}.cls-45{fill:#d4d4d4;}.cls-46{fill:#d3d3d3;}.cls-47{fill:#d2d2d2;}.cls-48{fill:#d1d1d1;}.cls-49{fill:#d0d0d0;}.cls-50{fill:#cfcfcf;}.cls-51{fill:#cecece;}.cls-52{fill:#cdcdcd;}.cls-53{fill:#ccc;}.cls-54{fill:#365b85;}.cls-55{stroke:#365b85;stroke-miterlimit:10;stroke-width:2px;}</style><clipPath id="clip-path"><rect class="cls-1" x="7.23" y="7.76" width="50.55" height="49.4" rx="6.89"/></clipPath></defs><title>Artboard 1</title><g id="Rectangle_793" data-name="Rectangle 793"><g class="cls-2"><rect class="cls-3" x="7.23" y="7.76" width="50.55" height="0.97"/><rect class="cls-4" x="7.23" y="8.73" width="50.55" height="0.97"/><rect class="cls-5" x="7.23" y="9.7" width="50.55" height="0.97"/><rect class="cls-6" x="7.23" y="10.67" width="50.55" height="0.97"/><rect class="cls-7" x="7.23" y="11.64" width="50.55" height="0.97"/><rect class="cls-8" x="7.23" y="12.6" width="50.55" height="0.97"/><rect class="cls-9" x="7.23" y="13.57" width="50.55" height="0.97"/><rect class="cls-10" x="7.23" y="14.54" width="50.55" height="0.97"/><rect class="cls-11" x="7.23" y="15.51" width="50.55" height="0.97"/><rect class="cls-12" x="7.23" y="16.48" width="50.55" height="0.97"/><rect class="cls-13" x="7.23" y="17.45" width="50.55" height="0.97"/><rect class="cls-14" x="7.23" y="18.42" width="50.55" height="0.97"/><rect class="cls-15" x="7.23" y="19.39" width="50.55" height="0.97"/><rect class="cls-16" x="7.23" y="20.35" width="50.55" height="0.97"/><rect class="cls-17" x="7.23" y="21.32" width="50.55" height="0.97"/><rect class="cls-18" x="7.23" y="22.29" width="50.55" height="0.97"/><rect class="cls-19" x="7.23" y="23.26" width="50.55" height="0.97"/><rect class="cls-20" x="7.23" y="24.23" width="50.55" height="0.97"/><rect class="cls-21" x="7.23" y="25.2" width="50.55" height="0.97"/><rect class="cls-22" x="7.23" y="26.17" width="50.55" height="0.97"/><rect class="cls-23" x="7.23" y="27.13" width="50.55" height="0.97"/><rect class="cls-24" x="7.23" y="28.1" width="50.55" height="0.97"/><rect class="cls-25" x="7.23" y="29.07" width="50.55" height="0.97"/><rect class="cls-26" x="7.23" y="30.04" width="50.55" height="0.97"/><rect class="cls-27" x="7.23" y="31.01" width="50.55" height="0.97"/><rect class="cls-28" x="7.23" y="31.98" width="50.55" height="0.97"/><rect class="cls-29" x="7.23" y="32.95" width="50.55" height="0.97"/><rect class="cls-30" x="7.23" y="33.92" width="50.55" height="0.97"/><rect class="cls-31" x="7.23" y="34.88" width="50.55" height="0.97"/><rect class="cls-32" x="7.23" y="35.85" width="50.55" height="0.97"/><rect class="cls-33" x="7.23" y="36.82" width="50.55" height="0.97"/><rect class="cls-34" x="7.23" y="37.79" width="50.55" height="0.97"/><rect class="cls-35" x="7.23" y="38.76" width="50.55" height="0.97"/><rect class="cls-36" x="7.23" y="39.73" width="50.55" height="0.97"/><rect class="cls-37" x="7.23" y="40.7" width="50.55" height="0.97"/><rect class="cls-38" x="7.23" y="41.67" width="50.55" height="0.97"/><rect class="cls-39" x="7.23" y="42.63" width="50.55" height="0.97"/><rect class="cls-40" x="7.23" y="43.6" width="50.55" height="0.97"/><rect class="cls-41" x="7.23" y="44.57" width="50.55" height="0.97"/><rect class="cls-42" x="7.23" y="45.54" width="50.55" height="0.97"/><rect class="cls-43" x="7.23" y="46.51" width="50.55" height="0.97"/><rect class="cls-44" x="7.23" y="47.48" width="50.55" height="0.97"/><rect class="cls-45" x="7.23" y="48.45" width="50.55" height="0.97"/><rect class="cls-46" x="7.23" y="49.42" width="50.55" height="0.97"/><rect class="cls-47" x="7.23" y="50.38" width="50.55" height="0.97"/><rect class="cls-48" x="7.23" y="51.35" width="50.55" height="0.97"/><rect class="cls-49" x="7.23" y="52.32" width="50.55" height="0.97"/><rect class="cls-50" x="7.23" y="53.29" width="50.55" height="0.97"/><rect class="cls-51" x="7.23" y="54.26" width="50.55" height="0.97"/><rect class="cls-52" x="7.23" y="55.23" width="50.55" height="0.97"/><rect class="cls-53" x="7.23" y="56.2" width="50.55" height="0.97"/></g></g><g id="Rectangle_793-2" data-name="Rectangle 793"><rect class="cls-1" x="6.64" y="7.26" width="50.55" height="49.4" rx="6.89"/><path class="cls-54" d="M50.3,57.09H13.53a7.32,7.32,0,0,1-7.31-7.32V14.15a7.32,7.32,0,0,1,7.31-7.31H50.3a7.32,7.32,0,0,1,7.32,7.31V49.77A7.32,7.32,0,0,1,50.3,57.09ZM13.53,8.84a5.31,5.31,0,0,0-5.31,5.31V49.77a5.32,5.32,0,0,0,5.31,5.32H50.3a5.33,5.33,0,0,0,5.32-5.32V14.15A5.32,5.32,0,0,0,50.3,8.84Z"/></g><path class="cls-55" d="M15.08,37.8l7.45-2.14a2.63,2.63,0,0,1,1.85.15l9.9,4.74a2.61,2.61,0,0,1,1.1,3.73l0,.06a1.21,1.21,0,0,1-1.35.47l-3.71-1.28"/><path class="cls-55" d="M38.17,43.67,46,40.82a2.19,2.19,0,0,1,2.92,1.81h0a2,2,0,0,1-1.08,1.87L37.41,50a3.09,3.09,0,0,1-2.56.15L22.58,45.4a2.68,2.68,0,0,0-1.83,0l-5.47,1.81"/><path class="cls-55" d="M47.57,26.2V23H45.18a8.63,8.63,0,0,0-1.37-3.32L45.5,18l-2.28-2.28-1.69,1.69A8.74,8.74,0,0,0,38.22,16V13.62H35V16a8.74,8.74,0,0,0-3.31,1.37L30,15.69,27.71,18l1.69,1.69A8.79,8.79,0,0,0,28,23H25.64V26.2H28a8.68,8.68,0,0,0,1.37,3.31L27.71,31.2,30,33.48l1.69-1.69A8.43,8.43,0,0,0,35,33.16v2.4h3.23v-2.4a8.43,8.43,0,0,0,3.31-1.37l1.69,1.69L45.5,31.2l-1.69-1.69a8.52,8.52,0,0,0,1.37-3.31Z"/><circle class="cls-55" cx="36.61" cy="24.59" r="3.85"/></svg>