<?xml version="1.0" encoding="utf-8"?>
<!-- Generator: Adobe Illustrator 24.0.2, SVG Export Plug-In . SVG Version: 6.00 Build 0)  -->
<svg version="1.1" id="Layer_1" xmlns="http://www.w3.org/2000/svg" xmlns:xlink="http://www.w3.org/1999/xlink" x="0px" y="0px"
	 viewBox="0 0 300 215" style="enable-background:new 0 0 300 215;" xml:space="preserve">
<style type="text/css">
	.st0{fill:#EDF8FD;}
	.st1{fill:none;stroke:#231F20;stroke-width:2;stroke-miterlimit:10;}
	.st2{fill:#FFFFFF;stroke:#231F20;stroke-width:2;stroke-miterlimit:10;}
	.st3{fill:#D9EDF2;}
	.st4{fill:none;stroke:#181B1E;stroke-width:2;stroke-miterlimit:10;}
	.st5{fill:#F47E20;stroke:#231F20;stroke-width:2;stroke-miterlimit:10;}
	.st6{fill:#FFFFFF;}
	.st7{fill:#231F20;}
</style>
<title>Artboard 1</title>
<g>
	<path class="st0" d="M247.7,38.5h8.7c4.6,0,8.3,3.7,8.3,8.3v144.6H38.9v-11.1"/>
	<g>
		<path class="st1" d="M132,38.5h124.4c4.6,0,8.3,3.7,8.3,8.3v144.6H38.9v-51.2"/>
		<line class="st2" x1="129.9" y1="59.8" x2="264.7" y2="59.8"/>
	</g>
	<path class="st3" d="M182,181.1h106v12.4c0,4.6-3.7,8.3-8.3,8.3H25.9c-4.6,0-8.3-3.7-8.3-8.3v-12.4h109.1l6.1,6h42L182,181.1z"/>
	<path class="st4" d="M182,181.1h106v12.4c0,4.6-3.7,8.3-8.3,8.3H25.9c-4.6,0-8.3-3.7-8.3-8.3v-12.4h109.1l6.1,6h42L182,181.1z"/>
	<circle class="st2" cx="156.1" cy="47.5" r="3.3"/>
	<g>
		<g>
			<path class="st2" d="M87.3,98.3l-1.1-10.3l-7.3,0.8c-1.2-4.4-3.5-8.4-6.4-11.8l4.7-5.7l-8-6.5l-4.7,5.7
				c-3.9-2.2-8.2-3.5-12.8-3.8l-0.8-7.3l-10.3,1.1l0.8,7.3c-4.4,1.2-8.4,3.5-11.8,6.4l-5.7-4.7l-6.5,8l5.7,4.7
				c-2.2,3.9-3.5,8.2-3.8,12.8L12,95.8l1.1,10.3l7.3-0.8c1.2,4.4,3.5,8.4,6.4,11.8l-4.7,5.7l8,6.5l4.7-5.7c3.9,2.2,8.2,3.5,12.8,3.8
				l0.8,7.3l10.3-1.1l-0.8-7.3c4.4-1.2,8.4-3.5,11.8-6.4l5.7,4.7l6.5-8l-5.7-4.7c2.2-3.9,3.5-8.2,3.8-12.8L87.3,98.3z"/>
			<circle class="st2" cx="49.7" cy="97.1" r="14.7"/>
		</g>
		<g>
			<path class="st5" d="M123.7,43.5l-0.8-8l-5.7,0.6c-1-3.4-2.7-6.5-4.9-9.1l3.6-4.4l-6.2-5L106,22c-3-1.7-6.4-2.7-9.9-3l-0.6-5.7
				l-8,0.8l0.6,5.7c-3.4,1-6.5,2.7-9.1,4.9l-4.4-3.6l-5,6.2L74,31c-1.7,3-2.7,6.4-3,9.9l-5.7,0.6l0.8,8l5.7-0.6
				c1,3.4,2.7,6.5,4.9,9.1l-3.6,4.4l6.2,5L83,63c3,1.7,6.4,2.7,9.9,3l0.6,5.7l8-0.8l-0.6-5.7c3.4-1,6.5-2.7,9.1-4.9l4.4,3.6l5-6.2
				l-4.4-3.6c1.7-3,2.7-6.4,3-9.9L123.7,43.5z"/>
			<circle class="st2" cx="94.5" cy="42.5" r="11.4"/>
		</g>
	</g>
	<path class="st6" d="M126.6,183.1H19.3v7.3c0,2.1,1.7,3.9,3.9,3.9h260c1.7,0,3.1-1.4,3.1-3.1v-8.1H182l-6.9,6.4l-42,0.1
		L126.6,183.1z"/>
	<g>
		<path class="st7" d="M113.5,113.5c0,1.2-0.2,2.3-0.6,3.2s-1,1.8-1.7,2.5c-0.7,0.7-1.6,1.2-2.7,1.6c-1.1,0.4-2.3,0.6-3.8,0.6h-2.7
			v8.6c0,0.1,0,0.2-0.1,0.3c-0.1,0.1-0.1,0.1-0.3,0.2c-0.1,0-0.3,0.1-0.5,0.1c-0.2,0-0.5,0-0.8,0c-0.3,0-0.6,0-0.8,0
			c-0.2,0-0.4-0.1-0.5-0.1c-0.1,0-0.2-0.1-0.3-0.2c0-0.1-0.1-0.2-0.1-0.3v-22.1c0-0.5,0.1-0.8,0.4-1.1c0.3-0.2,0.5-0.3,0.9-0.3h5.1
			c0.5,0,1,0,1.5,0.1c0.5,0,1,0.1,1.7,0.3c0.6,0.1,1.3,0.4,2,0.8c0.7,0.4,1.2,0.9,1.7,1.4s0.8,1.2,1.1,2
			C113.3,111.7,113.5,112.6,113.5,113.5z M110.1,113.7c0-1-0.2-1.8-0.5-2.4c-0.4-0.7-0.8-1.1-1.4-1.5c-0.5-0.3-1.1-0.5-1.7-0.6
			c-0.6-0.1-1.1-0.1-1.7-0.1h-2.9v9.6h2.9c1,0,1.8-0.1,2.4-0.4c0.6-0.2,1.2-0.6,1.6-1c0.4-0.4,0.8-1,1-1.6
			C110,115.1,110.1,114.4,110.1,113.7z"/>
		<path class="st7" d="M130.7,129c0,0.2,0,0.5,0,0.6c0,0.2-0.1,0.3-0.1,0.4c-0.1,0.1-0.1,0.2-0.2,0.3c-0.1,0.1-0.2,0.1-0.3,0.1
			h-10.6c-0.3,0-0.6-0.1-0.8-0.3c-0.3-0.2-0.4-0.5-0.4-1v-22.2c0-0.1,0-0.2,0.1-0.3c0-0.1,0.1-0.1,0.3-0.2c0.1,0,0.3-0.1,0.5-0.1
			c0.2,0,0.5,0,0.8,0c0.3,0,0.6,0,0.8,0s0.4,0.1,0.5,0.1c0.1,0,0.2,0.1,0.3,0.2c0,0.1,0.1,0.2,0.1,0.3v20.7h8.6c0.1,0,0.2,0,0.3,0.1
			c0.1,0.1,0.1,0.1,0.2,0.2c0.1,0.1,0.1,0.2,0.1,0.4C130.7,128.5,130.7,128.8,130.7,129z"/>
		<path class="st7" d="M146.8,107.8c0,0.2,0,0.4,0,0.6c0,0.2-0.1,0.3-0.1,0.4c-0.1,0.1-0.1,0.2-0.2,0.2c-0.1,0-0.2,0.1-0.3,0.1h-8.8
			v8.1h8.3c0.1,0,0.2,0,0.3,0.1c0.1,0,0.2,0.1,0.2,0.2c0.1,0.1,0.1,0.2,0.1,0.4c0,0.2,0,0.4,0,0.6c0,0.2,0,0.4,0,0.6
			c0,0.2-0.1,0.3-0.1,0.4c-0.1,0.1-0.1,0.2-0.2,0.2c-0.1,0.1-0.2,0.1-0.3,0.1h-8.3v10c0,0.1,0,0.2-0.1,0.3s-0.1,0.1-0.3,0.2
			c-0.1,0-0.3,0.1-0.5,0.1c-0.2,0-0.5,0-0.8,0c-0.3,0-0.5,0-0.8,0c-0.2,0-0.4-0.1-0.5-0.1c-0.1,0-0.2-0.1-0.3-0.2s-0.1-0.2-0.1-0.3
			v-22.2c0-0.5,0.1-0.8,0.4-1s0.5-0.3,0.8-0.3h10.8c0.1,0,0.2,0,0.3,0.1c0.1,0,0.2,0.1,0.2,0.2c0.1,0.1,0.1,0.3,0.1,0.4
			C146.8,107.4,146.8,107.6,146.8,107.8z"/>
		<path class="st7" d="M167.4,121c0,0.5-0.1,0.8-0.2,1c-0.1,0.2-0.3,0.3-0.5,0.3H159c-0.2,0-0.4-0.1-0.5-0.3s-0.2-0.5-0.2-1
			s0.1-0.8,0.2-1c0.1-0.2,0.3-0.3,0.5-0.3h7.7c0.1,0,0.2,0,0.3,0.1s0.1,0.1,0.2,0.2c0.1,0.1,0.1,0.2,0.1,0.4
			C167.4,120.6,167.4,120.8,167.4,121z"/>
		<path class="st7" d="M198.3,129.3c0.1,0.3,0.2,0.5,0.2,0.7c0,0.2,0,0.3-0.1,0.4c-0.1,0.1-0.3,0.1-0.5,0.2c-0.2,0-0.5,0-0.9,0
			c-0.4,0-0.7,0-0.9,0c-0.2,0-0.4,0-0.5-0.1c-0.1,0-0.2-0.1-0.3-0.2c-0.1-0.1-0.1-0.2-0.2-0.3l-2.1-5.8h-10l-2,5.8
			c0,0.1-0.1,0.2-0.1,0.3c-0.1,0.1-0.2,0.1-0.3,0.2c-0.1,0.1-0.3,0.1-0.5,0.1c-0.2,0-0.5,0-0.8,0c-0.4,0-0.7,0-0.9,0
			c-0.2,0-0.4-0.1-0.5-0.2c-0.1-0.1-0.1-0.2-0.1-0.4c0-0.2,0.1-0.4,0.2-0.7l8-22.2c0-0.1,0.1-0.2,0.2-0.3c0.1-0.1,0.2-0.2,0.4-0.2
			c0.2,0,0.4-0.1,0.6-0.1s0.5,0,0.9,0c0.4,0,0.7,0,1,0s0.5,0.1,0.6,0.1c0.2,0,0.3,0.1,0.4,0.2c0.1,0.1,0.2,0.2,0.2,0.3L198.3,129.3z
			 M188,109.6L188,109.6l-4.1,11.9h8.3L188,109.6z"/>
		<path class="st7" d="M217.1,113.5c0,1.2-0.2,2.3-0.6,3.2s-1,1.8-1.7,2.5c-0.7,0.7-1.6,1.2-2.7,1.6c-1.1,0.4-2.3,0.6-3.8,0.6h-2.7
			v8.6c0,0.1,0,0.2-0.1,0.3c-0.1,0.1-0.1,0.1-0.3,0.2s-0.3,0.1-0.5,0.1c-0.2,0-0.5,0-0.8,0c-0.3,0-0.6,0-0.8,0
			c-0.2,0-0.4-0.1-0.5-0.1s-0.2-0.1-0.3-0.2c0-0.1-0.1-0.2-0.1-0.3v-22.1c0-0.5,0.1-0.8,0.4-1.1s0.5-0.3,0.9-0.3h5.1
			c0.5,0,1,0,1.5,0.1c0.5,0,1,0.1,1.7,0.3c0.6,0.1,1.3,0.4,2,0.8c0.7,0.4,1.2,0.9,1.7,1.4c0.5,0.6,0.8,1.2,1.1,2
			C216.9,111.7,217.1,112.6,217.1,113.5z M213.7,113.7c0-1-0.2-1.8-0.5-2.4c-0.4-0.7-0.8-1.1-1.4-1.5c-0.5-0.3-1.1-0.5-1.7-0.6
			c-0.6-0.1-1.1-0.1-1.7-0.1h-2.9v9.6h2.9c1,0,1.8-0.1,2.4-0.4c0.6-0.2,1.2-0.6,1.6-1c0.4-0.4,0.8-1,1-1.6
			C213.6,115.1,213.7,114.4,213.7,113.7z"/>
		<path class="st7" d="M225.1,129.9c0,0.1,0,0.2-0.1,0.3c0,0.1-0.1,0.1-0.3,0.2s-0.3,0.1-0.5,0.1c-0.2,0-0.5,0-0.8,0
			c-0.3,0-0.5,0-0.8,0c-0.2,0-0.4-0.1-0.5-0.1s-0.2-0.1-0.3-0.2c0-0.1-0.1-0.2-0.1-0.3v-23c0-0.1,0-0.2,0.1-0.3
			c0.1-0.1,0.1-0.1,0.3-0.2c0.1,0,0.3-0.1,0.5-0.1c0.2,0,0.4,0,0.7,0c0.3,0,0.6,0,0.8,0c0.2,0,0.4,0.1,0.5,0.1
			c0.1,0,0.2,0.1,0.3,0.2c0,0.1,0.1,0.2,0.1,0.3V129.9z"/>
		<path class="st7" d="M233.7,113.7c0,0.1,0,0.2-0.1,0.3c0,0.1-0.1,0.1-0.2,0.2c-0.1,0-0.2,0.1-0.4,0.1c-0.1,0-0.3,0-0.6,0
			c-0.2,0-0.4,0-0.6,0c-0.2,0-0.3-0.1-0.4-0.1c-0.1,0-0.2-0.1-0.2-0.2c0-0.1-0.1-0.2-0.1-0.3l-0.4-8.6c0-0.1,0-0.2,0.1-0.3
			c0.1-0.1,0.2-0.1,0.3-0.2c0.1,0,0.3-0.1,0.5-0.1s0.4,0,0.7,0c0.3,0,0.5,0,0.8,0c0.2,0,0.4,0.1,0.5,0.1c0.1,0.1,0.2,0.1,0.3,0.2
			s0.1,0.2,0.1,0.3L233.7,113.7z"/>
		<path class="st7" d="M249.9,125.4c0,0.9-0.2,1.6-0.5,2.3c-0.3,0.7-0.8,1.2-1.3,1.7s-1.3,0.8-2.1,1s-1.7,0.4-2.6,0.4
			c-0.6,0-1.2,0-1.7-0.1c-0.5-0.1-1-0.2-1.4-0.4c-0.4-0.1-0.8-0.3-1.1-0.4s-0.5-0.3-0.6-0.4s-0.2-0.3-0.3-0.5
			c-0.1-0.2-0.1-0.5-0.1-0.9c0-0.2,0-0.4,0-0.6c0-0.2,0.1-0.3,0.1-0.4c0-0.1,0.1-0.2,0.2-0.2c0.1,0,0.1-0.1,0.2-0.1
			c0.1,0,0.3,0.1,0.6,0.3s0.6,0.3,1,0.5c0.4,0.2,0.8,0.4,1.4,0.5s1.1,0.3,1.8,0.3c0.5,0,1-0.1,1.4-0.2c0.4-0.1,0.8-0.3,1.1-0.5
			s0.5-0.5,0.7-0.8c0.2-0.3,0.3-0.7,0.3-1.2c0-0.5-0.1-0.9-0.4-1.2c-0.2-0.3-0.6-0.6-1-0.9s-0.8-0.5-1.3-0.7s-1-0.4-1.5-0.6
			c-0.5-0.2-1-0.4-1.5-0.7s-0.9-0.6-1.3-1s-0.7-0.8-1-1.4c-0.2-0.5-0.4-1.2-0.4-1.9c0-0.7,0.1-1.3,0.4-1.9s0.6-1.1,1.1-1.6
			c0.5-0.5,1.1-0.8,1.9-1.1c0.8-0.3,1.6-0.4,2.7-0.4c0.4,0,0.9,0,1.3,0.1c0.4,0.1,0.8,0.2,1.2,0.3c0.4,0.1,0.7,0.2,0.9,0.4
			s0.4,0.2,0.6,0.3c0.1,0.1,0.2,0.2,0.3,0.3c0,0.1,0.1,0.2,0.1,0.3c0,0.1,0,0.2,0.1,0.3s0,0.3,0,0.5c0,0.2,0,0.4,0,0.5
			s0,0.3-0.1,0.4c0,0.1-0.1,0.2-0.2,0.2c-0.1,0-0.1,0.1-0.2,0.1c-0.1,0-0.3-0.1-0.5-0.2s-0.5-0.3-0.8-0.4c-0.3-0.2-0.7-0.3-1.2-0.4
			s-1-0.2-1.5-0.2c-0.5,0-1,0.1-1.4,0.2c-0.4,0.1-0.7,0.3-1,0.5s-0.4,0.5-0.6,0.8c-0.1,0.3-0.2,0.6-0.2,1c0,0.5,0.1,0.9,0.4,1.2
			c0.2,0.3,0.6,0.6,1,0.9s0.8,0.5,1.4,0.7s1,0.4,1.5,0.6c0.5,0.2,1,0.4,1.6,0.7c0.5,0.3,1,0.6,1.4,0.9c0.4,0.4,0.7,0.8,1,1.3
			C249.8,124.1,249.9,124.7,249.9,125.4z"/>
	</g>
</g>
</svg>
